<?xml version="1.0" encoding="utf-8" ?>
<svg baseProfile="full" height="200mm" version="1.1" viewBox="0,0,200,200" width="200mm" xmlns="http://www.w3.org/2000/svg" xmlns:ev="http://www.w3.org/2001/xml-events" xmlns:xlink="http://www.w3.org/1999/xlink"><defs /><rect fill="#1a1a1a" height="200" width="200" x="0" y="0" /><text alignment-baseline="middle" fill="#e1ed5e" style="dominant-baseline: central; font-size:9.0px; font-family:Arial;" text-anchor="middle" x="100.0" y="100.0">2025</text><line stroke="#e1ed5e" stroke-width="0.3" x1="100.0" x2="100.0" y1="15.0" y2="10.0" /><path d="M 100.0 14.0 a86.0,86.0 0 0,1 42.46469731375804,11.215312516191453" fill="none" id="id49" stroke="none" /><text fill="#e1ed5e" style="font-size:6.75px; font-family:Arial;" text-anchor="middle"><textPath startOffset="22.20632615414155" xlink:href="#id49">January</textPath></text><path d="M 100.0 79.0 l 0.0 -46.59817642292677 a67.59817642292677,67.59817642292677 0 0,0 1.1635914862527856,0.010015399281120475 l -0.8021110069802572 46.591272400254205" fill="#32ff47" stroke="none" /><path d="M 101.80526077348638 79.07773832637324 l 2.8538385524269674 -33.074865329760534 a54.19775762103691,54.19775762103691 0 0,0 0.9287814826602098,0.0881989931046327 l -3.4227451621774216 33.020840792140724" fill="#daff1c" stroke="none" /><path d="M 102.52436894288641 79.15227682838746 l 4.788326755622371 -39.544818097111595 a60.833663043363885,60.833663043363885 0 0,0 1.03847486723631,0.13482384219552582 l -5.468316351366528 39.45653593175193" fill="#77ff27" stroke="none" /><path d="M 102.88285421437855 79.19881850522331 l 4.2367791593570825 -30.57040200212542 a51.862595098544716,51.862595098544716 0 0,0 0.8832225125099212,0.13016403940093346 l -4.76237065229566 30.492943478563518" fill="#ffff18" stroke="none" /><path d="M 104.66035177308747 79.52364482259891 l 3.689643354197404 -16.2113186894541 a37.62589311081413,37.62589311081413 0 0,0 0.6302808549173515,0.14916711480123834 l -3.968147896077279 16.145405662511994" fill="#ff0100" stroke="none" /><path d="M 105.01212808612495 79.60689891045804 l 7.932894002654544 -32.27697029064357 a54.23753327791399,54.23753327791399 0 0,0 0.904710752709687,0.2306309150909068 l -8.487313644049257 32.13563637938379" fill="#d9ff1c" stroke="none" /><path d="M 109.08828744355905 81.06846463323043 l 14.383102114253349 -29.96100288980434 a54.23455010364821,54.23455010364821 0 0,0 0.8381271347331528,0.4112653450673758 l -14.896700515996933 29.708982384602134" fill="#d9ff1c" stroke="none" /><line stroke="#e1ed5e" stroke-width="0.3" x1="143.23703022742887" x2="145.7803849466894" y1="26.81831364943548" y2="22.513508569990506" /><path d="M 143.74570117128098 25.957352633546492 a86.0,86.0 0 0,1 28.547481713284135,27.462654790039103" fill="none" id="id50" stroke="none" /><text fill="#e1ed5e" style="font-size:6.75px; font-family:Arial;" text-anchor="middle"><textPath startOffset="19.985693538727396" xlink:href="#id50">February</textPath></text><path d="M 112.48926042617603 83.11751280151076 l 10.095243478868932 -13.646349982456089 a37.97459303610325,37.97459303610325 0 0,0 0.5221576094588066,0.39327828598186826 l -10.328647242086122 13.470555106968373" fill="#ff0701" stroke="none" /><path d="M 114.94478906791727 85.2469230424477 l 14.218174124810014 -14.035783048253737 a40.97898098555239,40.97898098555239 0 0,0 0.49123209290925357,0.5062578522630168 l -14.457670481422378 13.788961000440606" fill="#ff4106" stroke="none" /><path d="M 115.19652480421416 85.50635884689758 l 24.082845115657417 -22.968943199124645 a54.279960645249545,54.279960645249545 0 0,0 0.6390371444601393,0.6816802701337095 l -24.474649582088016 22.55099351211288" fill="#d8ff1c" stroke="none" /><path d="M 115.68641384162765 86.03803664274999 l 27.2618559162622 -24.264885345775593 a57.49648543137648,57.49648543137648 0 0,0 0.6516491118259674,0.7449475837562564 l -27.675496891666015 23.792022205816387" fill="#a7ff21" stroke="none" /><path d="M 116.15771136456269 86.58626213691792 l 12.787618072625373 -10.615968613946704 a37.619926762282574,37.619926762282574 0 0,0 0.40934333300745857,0.5018065249666291 l -12.96845989770924 10.394277919371973" fill="#ff0000" stroke="none" /><path d="M 116.60985879189232 87.15038557335679 l 49.829576375676965 -38.54884327992963 a84.0,84.0 0 0,0 0.874896239103546,1.1512608964758657 l -50.48574855500462 37.68539760757273" fill="#4dd2ff" stroke="none" /><path d="M 116.82858285166822 87.43820079747576 l 31.92008507362422 -23.826943882123174 a60.83233718813465,60.83233718813465 0 0,0 0.6191497535848606,0.8445195680752616 l -32.32549743972271 23.273961870376418" fill="#77ff27" stroke="none" /><path d="M 117.04232023915458 87.72973835380427 l 13.469966000899673 -9.69821038902147 a37.59805015100018,37.59805015100018 0 0,0 0.3736304088806882,0.5284737163700702 l -13.634909029584243 9.464910172319607" fill="#ff0000" stroke="none" /><line stroke="#e1ed5e" stroke-width="0.3" x1="172.23445277983987" x2="176.4835382374775" y1="55.19839476539836" y2="52.563006222186495" /><path d="M 173.08426987136738 54.67131705675599 a86.0,86.0 0 0,1 12.851231095245387,41.99856678651699" fill="none" id="id51" stroke="none" /><text fill="#e1ed5e" style="font-size:6.75px; font-family:Arial;" text-anchor="middle"><textPath startOffset="22.20632615414155" xlink:href="#id51">March</textPath></text><line stroke="#e1ed5e" stroke-width="0.3" x1="184.98032266829074" x2="189.97916517819016" y1="98.17113171792111" y2="98.06355123074" /><path d="M 185.9800911702706 98.14961562048488 a86.0,86.0 0 0,1 -9.607161424134198,41.387399972396054" fill="none" id="id52" stroke="none" /><text fill="#e1ed5e" style="font-size:6.75px; font-family:Arial;" text-anchor="middle"><textPath startOffset="21.466115282336823" xlink:href="#id52">April</textPath></text><line stroke="#e1ed5e" stroke-width="0.3" x1="174.80103733775053" x2="179.2010983576182" y1="140.37084112569926" y2="142.7455964860345" /><path d="M 175.68104954172406 140.8457921977663 a86.0,86.0 0 0,1 -30.038265399797805,32.042727171017184" fill="none" id="id53" stroke="none" /><text fill="#e1ed5e" style="font-size:6.75px; font-family:Arial;" text-anchor="middle"><textPath startOffset="22.206326154141568" xlink:href="#id53">May</textPath></text><line stroke="#e1ed5e" stroke-width="0.3" x1="143.8653032363475" x2="146.44561519142675" y1="172.8068346515853" y2="177.08958963109032" /><path d="M 144.38136562736335 173.6633856474863 a86.0,86.0 0 0,1 -40.68145358897372,12.25698825130547" fill="none" id="id54" stroke="none" /><text fill="#e1ed5e" style="font-size:6.75px; font-family:Arial;" text-anchor="middle"><textPath startOffset="21.466115282336833" xlink:href="#id54">June</textPath></text><line stroke="#e1ed5e" stroke-width="0.3" x1="102.19456741930631" x2="102.32365962044197" y1="184.97166512339345" y2="189.96999836594603" /><path d="M 102.22038585953345 185.97133177190398 a86.0,86.0 0 0,1 -42.740103519485714,-10.115201625700543" fill="none" id="id55" stroke="none" /><text fill="#e1ed5e" style="font-size:6.75px; font-family:Arial;" text-anchor="middle"><textPath startOffset="22.20632615414155" xlink:href="#id55">July</textPath></text><line stroke="#e1ed5e" stroke-width="0.3" x1="58.666819895761336" x2="56.23545636021788" y1="174.27360380694188" y2="178.64263932499728" /><path d="M 58.180547188652646 175.14741091055294 a86.0,86.0 0 0,1 -31.652253787137756,-30.449443065178592" fill="none" id="id56" stroke="none" /><text fill="#e1ed5e" style="font-size:6.75px; font-family:Arial;" text-anchor="middle"><textPath startOffset="22.20632615414155" xlink:href="#id56">August</textPath></text><line stroke="#e1ed5e" stroke-width="0.3" x1="26.63291911575756" x2="22.317208475507996" y1="142.92168965132927" y2="145.44649492493687" /><path d="M 25.769776987707644 143.4266507060508 a86.0,86.0 0 0,1 -11.730757126820373,-40.83630448921669" fill="none" id="id57" stroke="none" /><text fill="#e1ed5e" style="font-size:6.75px; font-family:Arial;" text-anchor="middle"><textPath startOffset="21.46611528233685" xlink:href="#id57">September</textPath></text><line stroke="#e1ed5e" stroke-width="0.3" x1="15.007084014347285" x2="10.007500721073583" y1="101.09737516637583" y2="101.16192664675087" /><path d="M 14.007167355692545 101.11028546245083 a86.0,86.0 0 0,1 10.666146001902534,-42.60595125391555" fill="none" id="id58" stroke="none" /><text fill="#e1ed5e" style="font-size:6.75px; font-family:Arial;" text-anchor="middle"><textPath startOffset="22.20632615414155" xlink:href="#id58">October</textPath></text><line stroke="#e1ed5e" stroke-width="0.3" x1="26.266209847984243" x2="21.928928074336255" y1="57.711370442889674" y2="55.22380399835377" /><path d="M 25.398753493254645 57.213857153982495 a86.0,86.0 0 0,1 29.58750427330803,-30.492523968695096" fill="none" id="id59" stroke="none" /><text fill="#e1ed5e" style="font-size:6.75px; font-family:Arial;" text-anchor="middle"><textPath startOffset="21.46611528233685" xlink:href="#id59">November</textPath></text><line stroke="#e1ed5e" stroke-width="0.3" x1="56.762969772571076" x2="54.21961505331055" y1="26.818313649435495" y2="22.513508569990535" /><path d="M 56.25429882871897 25.957352633546506 a86.0,86.0 0 0,1 42.265352541879196,-11.944610805530505" fill="none" id="id60" stroke="none" /><text fill="#e1ed5e" style="font-size:6.75px; font-family:Arial;" text-anchor="middle"><textPath startOffset="22.20632615414155" xlink:href="#id60">December</textPath></text></svg>