<?xml version="1.0" encoding="utf-8" ?>
<svg baseProfile="full" height="200mm" version="1.1" viewBox="0,0,200,200" width="200mm" xmlns="http://www.w3.org/2000/svg" xmlns:ev="http://www.w3.org/2001/xml-events" xmlns:xlink="http://www.w3.org/1999/xlink"><defs /><rect fill="#1a1a1a" height="200" width="200" x="0" y="0" /><text alignment-baseline="middle" fill="#e1ed5e" style="dominant-baseline: central; font-size:9.0px; font-family:Arial;" text-anchor="middle" x="100.0" y="100.0">2025</text><line stroke="#e1ed5e" stroke-width="0.3" x1="100.0" x2="100.0" y1="15.0" y2="10.0" /><path d="M 100.0 14.0 a86.0,86.0 0 0,1 42.46469731375804,11.215312516191453" fill="none" id="id49" stroke="none" /><text fill="#e1ed5e" style="font-size:6.75px; font-family:Arial;" text-anchor="middle"><textPath startOffset="22.20632615414155" xlink:href="#id49">January</textPath></text><path d="M 100.0 79.0 l 0.0 -41.722508797467455 a62.722508797467455,62.722508797467455 0 0,0 1.0796648829182816,0.0092930165096461 l -0.7181844036457532 41.71632715756637" fill="#52ff2b" stroke="none" /><path d="M 101.80526077348638 79.07773832637324 l 2.555235274219929 -29.614170888821047 a50.72420469480914,50.72420469480914 0 0,0 0.8692555579996608,0.08254628930217825 l -3.064615959309834 29.56579905500369" fill="#feff18" stroke="none" /><path d="M 102.52436894288641 79.15227682838746 l 4.287313807591598 -35.40715855436817 a56.665781031388235,56.665781031388235 0 0,0 0.9673260903501026,0.12558668897212685 l -4.8961546264495475 35.32811354223191" fill="#a5ff21" stroke="none" /><path d="M 102.88285421437855 79.19881850522331 l 3.793475824994527 -27.37175495666497 a48.63337525968428,48.63337525968428 0 0,0 0.8282287418722226,0.12205938714546812 l -4.264073547295405 27.302401085358532" fill="#ffdf14" stroke="none" /><path d="M 104.66035177308747 79.52364482259891 l 3.30358801829159 -14.515093477059612 a35.88629008324029,35.88629008324029 0 0,0 0.6011403244797916,0.14227049273944578 l -3.552952029733905 14.456077072179296" fill="#ff0000" stroke="none" /><path d="M 105.01212808612495 79.60689891045804 l 7.1028582065345685 -28.89976132723498 a50.75981853898444,50.75981853898444 0 0,0 0.8467006307698728,0.21584284335920315 l -7.599267725989466 28.77321548770691" fill="#fdff18" stroke="none" /><path d="M 109.08828744355905 81.06846463323043 l 12.878167142213602 -26.826118586816055 a50.757147500671294,50.757147500671294 0 0,0 0.7843882270741659,0.38489589646462447 l -13.3380266362982 26.600467530216598" fill="#fdff18" stroke="none" /><line stroke="#e1ed5e" stroke-width="0.3" x1="143.23703022742887" x2="145.7803849466894" y1="26.81831364943548" y2="22.513508569990506" /><path d="M 143.74570117128098 25.957352633546492 a86.0,86.0 0 0,1 28.547481713284135,27.462654790039103" fill="none" id="id50" stroke="none" /><text fill="#e1ed5e" style="font-size:6.75px; font-family:Arial;" text-anchor="middle"><textPath startOffset="19.985693538727396" xlink:href="#id50">February</textPath></text><path d="M 112.48926042617603 83.11751280151076 l 9.038956396852708 -12.218502973781893 a36.19850478384375,36.19850478384375 0 0,0 0.49773607069192655,0.3748844892942495 l -9.247938621303017 12.061101894981796" fill="#ff0601" stroke="none" /><path d="M 114.94478906791727 85.2469230424477 l 12.730495923751226 -12.567188818616211 a38.88853714721802,38.88853714721802 0 0,0 0.4661730729649487,0.4804323294603699 l -12.944933260419283 12.346192293605728" fill="#ff3805" stroke="none" /><path d="M 115.19652480421416 85.50635884689758 l 21.563005128923724 -20.56565317054991 a50.797806639438086,50.797806639438086 0 0,0 0.5980417987378513,0.6379492936349916 l -21.913814249632036 20.191434460036866" fill="#fdff18" stroke="none" /><path d="M 115.68641384162765 86.03803664274999 l 24.40938917819778 -21.725998097439586 a53.67777950508063,53.67777950508063 0 0,0 0.608368965108734,0.6954708943286034 l -24.779750006884363 21.302611646908037" fill="#d1ff1c" stroke="none" /><path d="M 116.15771136456269 86.58626213691792 l 11.449622034377795 -9.505196938803522 a35.880948006614005,35.880948006614005 0 0,0 0.390421463106632,0.47861054981529716 l -11.611541989560836 9.306702219380124" fill="#ff0000" stroke="none" /><path d="M 116.60985879189232 87.15038557335679 l 44.61580040899115 -34.51539472878881 a77.40817422518688,77.40817422518688 0 0,0 0.8062395298272387,1.0609167149172458 l -45.203315879042506 33.74229323799053" fill="#42ffdb" stroke="none" /><path d="M 116.82858285166822 87.43820079747576 l 28.580217779615598 -21.33387939296119 a56.664593903249056,56.664593903249056 0 0,0 0.5767305839931784,0.7866598684238288 l -28.943210976122405 20.838757080865868" fill="#a5ff21" stroke="none" /><path d="M 117.04232023915458 87.72973835380427 l 12.060574428350678 -8.68346573486414 a35.861360392317586,35.861360392317586 0 0,0 0.35637206431150265,0.5040630118982476 l -12.208259112466065 8.474576222634099" fill="#ff0000" stroke="none" /><path d="M 117.65298651832404 88.62581576622439 l 30.371748876337552 -19.56914581353387 a57.1302449158411,57.1302449158411 0 0,0 0.5255231779738235,0.8312514628904171 l -30.70409965055733 19.043446702929245" fill="#9eff22" stroke="none" /><line stroke="#e1ed5e" stroke-width="0.3" x1="172.23445277983987" x2="176.4835382374775" y1="55.19839476539836" y2="52.563006222186495" /><path d="M 173.08426987136738 54.67131705675599 a86.0,86.0 0 0,1 12.851231095245387,41.99856678651699" fill="none" id="id51" stroke="none" /><text fill="#e1ed5e" style="font-size:6.75px; font-family:Arial;" text-anchor="middle"><textPath startOffset="22.20632615414155" xlink:href="#id51">March</textPath></text><path d="M 118.03404312379186 89.2402003453031 l 30.610646693466858 -18.26348220759721 a56.645006288952644,56.645006288952644 0 0,0 0.49238085179122726,0.8416384833093475 l -30.920487219728415 17.733864311933967" fill="#a5ff21" stroke="none" /><path d="M 118.73160827565052 90.50648371742162 l 37.1092805111571 -18.80765140841619 a62.603202419480205,62.603202419480205 0 0,0 0.47888464884478427,0.9654022301337146 l -37.42752517295529 18.166089589783528" fill="#54ff2b" stroke="none" /><path d="M 119.47837535516314 92.15188598940014 l 13.790312070439832 -5.5563125464606635 a35.86759281504826,35.86759281504826 0 0,0 0.22580605335076942,0.5746517759340858 l -13.883911673672301 5.3181117656307935" fill="#ff0000" stroke="none" /><path d="M 120.08093135843002 93.85539295169968 l 60.24279407529006 -18.433821144900946 a84.0,84.0 0 0,0 0.41117641155319085,1.3862824530138804 l -60.551176383954946 17.394109305140535" fill="#4dd2ff" stroke="none" /><path d="M 120.45610955862082 95.25157060432595 l 23.155972574886746 -5.375142352700015 a44.771647422942664,44.771647422942664 0 0,0 0.16779904549292127,0.752210218858394 l -23.245066007381705 4.975753964291657" fill="#ff9f0e" stroke="none" /><path d="M 120.73433829027371 96.67025291283417 l 32.289294717023154 -5.185368518901868 a53.703005978038135,53.703005978038135 0 0,0 0.1387176942334579,0.9139762858935309 l -32.373768304695915 4.628793120616255" fill="#d0ff1d" stroke="none" /><line stroke="#e1ed5e" stroke-width="0.3" x1="184.98032266829074" x2="189.97916517819016" y1="98.17113171792111" y2="98.06355123074" /><path d="M 185.9800911702706 98.14961562048488 a86.0,86.0 0 0,1 -9.607161424134198,41.387399972396054" fill="none" id="id52" stroke="none" /><text fill="#e1ed5e" style="font-size:6.75px; font-family:Arial;" text-anchor="middle"><textPath startOffset="21.466115282336823" xlink:href="#id52">April</textPath></text><line stroke="#e1ed5e" stroke-width="0.3" x1="174.80103733775053" x2="179.2010983576182" y1="140.37084112569926" y2="142.7455964860345" /><path d="M 175.68104954172406 140.8457921977663 a86.0,86.0 0 0,1 -30.038265399797805,32.042727171017184" fill="none" id="id53" stroke="none" /><text fill="#e1ed5e" style="font-size:6.75px; font-family:Arial;" text-anchor="middle"><textPath startOffset="22.206326154141568" xlink:href="#id53">May</textPath></text><line stroke="#e1ed5e" stroke-width="0.3" x1="143.8653032363475" x2="146.44561519142675" y1="172.8068346515853" y2="177.08958963109032" /><path d="M 144.38136562736335 173.6633856474863 a86.0,86.0 0 0,1 -40.68145358897372,12.25698825130547" fill="none" id="id54" stroke="none" /><text fill="#e1ed5e" style="font-size:6.75px; font-family:Arial;" text-anchor="middle"><textPath startOffset="21.466115282336833" xlink:href="#id54">June</textPath></text><line stroke="#e1ed5e" stroke-width="0.3" x1="102.19456741930631" x2="102.32365962044197" y1="184.97166512339345" y2="189.96999836594603" /><path d="M 102.22038585953345 185.97133177190398 a86.0,86.0 0 0,1 -42.740103519485714,-10.115201625700543" fill="none" id="id55" stroke="none" /><text fill="#e1ed5e" style="font-size:6.75px; font-family:Arial;" text-anchor="middle"><textPath startOffset="22.20632615414155" xlink:href="#id55">July</textPath></text><line stroke="#e1ed5e" stroke-width="0.3" x1="58.666819895761336" x2="56.23545636021788" y1="174.27360380694188" y2="178.64263932499728" /><path d="M 58.180547188652646 175.14741091055294 a86.0,86.0 0 0,1 -31.652253787137756,-30.449443065178592" fill="none" id="id56" stroke="none" /><text fill="#e1ed5e" style="font-size:6.75px; font-family:Arial;" text-anchor="middle"><textPath startOffset="22.20632615414155" xlink:href="#id56">August</textPath></text><line stroke="#e1ed5e" stroke-width="0.3" x1="26.63291911575756" x2="22.317208475507996" y1="142.92168965132927" y2="145.44649492493687" /><path d="M 25.769776987707644 143.4266507060508 a86.0,86.0 0 0,1 -11.730757126820373,-40.83630448921669" fill="none" id="id57" stroke="none" /><text fill="#e1ed5e" style="font-size:6.75px; font-family:Arial;" text-anchor="middle"><textPath startOffset="21.46611528233685" xlink:href="#id57">September</textPath></text><line stroke="#e1ed5e" stroke-width="0.3" x1="15.007084014347285" x2="10.007500721073583" y1="101.09737516637583" y2="101.16192664675087" /><path d="M 14.007167355692545 101.11028546245083 a86.0,86.0 0 0,1 10.666146001902534,-42.60595125391555" fill="none" id="id58" stroke="none" /><text fill="#e1ed5e" style="font-size:6.75px; font-family:Arial;" text-anchor="middle"><textPath startOffset="22.20632615414155" xlink:href="#id58">October</textPath></text><line stroke="#e1ed5e" stroke-width="0.3" x1="26.266209847984243" x2="21.928928074336255" y1="57.711370442889674" y2="55.22380399835377" /><path d="M 25.398753493254645 57.213857153982495 a86.0,86.0 0 0,1 29.58750427330803,-30.492523968695096" fill="none" id="id59" stroke="none" /><text fill="#e1ed5e" style="font-size:6.75px; font-family:Arial;" text-anchor="middle"><textPath startOffset="21.46611528233685" xlink:href="#id59">November</textPath></text><line stroke="#e1ed5e" stroke-width="0.3" x1="56.762969772571076" x2="54.21961505331055" y1="26.818313649435495" y2="22.513508569990535" /><path d="M 56.25429882871897 25.957352633546506 a86.0,86.0 0 0,1 42.265352541879196,-11.944610805530505" fill="none" id="id60" stroke="none" /><text fill="#e1ed5e" style="font-size:6.75px; font-family:Arial;" text-anchor="middle"><textPath startOffset="22.20632615414155" xlink:href="#id60">December</textPath></text></svg>