<?xml version="1.0" encoding="utf-8" ?>
<svg baseProfile="full" height="200mm" version="1.1" viewBox="0,0,200,200" width="200mm" xmlns="http://www.w3.org/2000/svg" xmlns:ev="http://www.w3.org/2001/xml-events" xmlns:xlink="http://www.w3.org/1999/xlink"><defs /><rect fill="#1a1a1a" height="200" width="200" x="0" y="0" /><text alignment-baseline="middle" fill="#e1ed5e" style="dominant-baseline: central; font-size:9.0px; font-family:Arial;" text-anchor="middle" x="100.0" y="100.0">2025</text><line stroke="#e1ed5e" stroke-width="0.3" x1="100.0" x2="100.0" y1="15.0" y2="10.0" /><path d="M 100.0 14.0 a86.0,86.0 0 0,1 42.46469731375804,11.215312516191453" fill="none" id="id49" stroke="none" /><text fill="#e1ed5e" style="font-size:6.75px; font-family:Arial;" text-anchor="middle"><textPath startOffset="22.20632615414155" xlink:href="#id49">January</textPath></text><path d="M 100.0 79.0 l 0.0 -41.176085804346 a62.176085804346,62.176085804346 0 0,0 1.0702591093259448,0.009212058046828158 l -0.7087786300534165 41.16998512290773" fill="#36ff2e" stroke="none" /><path d="M 101.80526077348638 79.07773832637324 l 2.521770380882702 -29.226325949427995 a50.33491868671371,50.33491868671371 0 0,0 0.8625844031097138,0.08191278276148677 l -3.02447991108266 29.17858762215133" fill="#c4ff1e" stroke="none" /><path d="M 102.52436894288641 79.15227682838746 l 4.231164575181649 -34.94344517487987 a56.198680576864064,56.198680576864064 0 0,0 0.9593523459094262,0.12455146809572928 l -4.832031649598921 34.86543538362" fill="#7bff26" stroke="none" /><path d="M 102.88285421437855 79.19881850522331 l 3.743794190922867 -27.0132780409308 a48.27147200758738,48.27147200758738 0 0,0 0.8220655119182417,0.12115108726044002 l -4.208228683269764 26.94483246950939" fill="#dfff1b" stroke="none" /><path d="M 104.66035177308747 79.52364482259891 l 3.260322248686081 -14.324995109253551 a35.691330302100475,35.691330302100475 0 0,0 0.597874503860746,0.14149757851335001 l -3.5064204395093506 14.266751618599333" fill="#ff6a09" stroke="none" /><path d="M 105.01212808612495 79.60689891045804 l 7.009834916401846 -28.52127272383916 a50.3700661106307,50.3700661106307 0 0,0 0.8401993540429327,0.2141855231645414 l -7.499743159129804 28.39638420450575" fill="#c4ff1e" stroke="none" /><path d="M 109.08828744355905 81.06846463323043 l 12.709506943232617 -26.474787652159296 a50.36743005383693,50.36743005383693 0 0,0 0.7783656313958284,0.38194063492111013 l -13.163343841638877 26.252091857103352" fill="#c4ff1e" stroke="none" /><line stroke="#e1ed5e" stroke-width="0.3" x1="143.23703022742887" x2="145.7803849466894" y1="26.81831364943548" y2="22.513508569990506" /><path d="M 143.74570117128098 25.957352633546492 a86.0,86.0 0 0,1 28.547481713284135,27.462654790039103" fill="none" id="id50" stroke="none" /><text fill="#e1ed5e" style="font-size:6.75px; font-family:Arial;" text-anchor="middle"><textPath startOffset="19.985693538727396" xlink:href="#id50">February</textPath></text><path d="M 112.48926042617603 83.11751280151076 l 8.920576803884357 -12.058482132302613 a35.99945605177271,35.99945605177271 0 0,0 0.4949991141693061,0.37282307038447104 l -9.126822071812045 11.903142472412295" fill="#ff6f0a" stroke="none" /><path d="M 114.94478906791727 85.2469230424477 l 12.563769715594763 -12.402601378231818 a38.654258138302325,38.654258138302325 0 0,0 0.4633646730216964,0.477538026453524 l -12.775398652319568 12.18449915622818" fill="#ff970d" stroke="none" /><path d="M 115.19652480421416 85.50635884689758 l 21.2806030840123 -20.296313044923725 a50.407556696142144,50.407556696142144 0 0,0 0.5934473921387118,0.6330483010107658 l -21.626817798121472 19.926995327034902" fill="#c3ff1e" stroke="none" /><path d="M 115.68641384162765 86.03803664274999 l 24.089709181010583 -21.44146139887762 a53.24981171022902,53.24981171022902 0 0,0 0.6035184976181945,0.6899259714988295 l -24.455219542206628 21.023619871175843" fill="#9fff22" stroke="none" /><path d="M 116.15771136456269 86.58626213691792 l 11.299670918722114 -9.380711180127733 a35.68605818851293,35.68605818851293 0 0,0 0.3883008622821058,0.476010943947092 l -11.459470273080628 9.18481606657254" fill="#ff6a09" stroke="none" /><path d="M 116.60985879189232 87.15038557335679 l 44.031485134031705 -34.06336042308527 a76.66941895171412,76.66941895171412 0 0,0 0.7985450749417716,1.0507917142218348 l -44.61130614919759 33.300383932982406" fill="#43ffdd" stroke="none" /><path d="M 116.82858285166822 87.43820079747576 l 28.205914110126088 -21.05447811607773 a56.19750899606684,56.19750899606684 0 0,0 0.5719766074314907,0.7801754497363131 l -28.564153330071203 20.56584022266992" fill="#7bff26" stroke="none" /><path d="M 117.04232023915458 87.72973835380427 l 11.902621913800465 -8.56974186076671 a35.66672710535859,35.66672710535859 0 0,0 0.35443789713272017,0.5013272695904565 l -12.048372430737068 8.36358809084446" fill="#ff6a09" stroke="none" /><path d="M 117.65298651832404 88.62581576622439 l 29.97398224135636 -19.31285654578709 a56.65706156378141,56.65706156378141 0 0,0 0.5211705129484061,0.8243665921149735 l -30.30198035055072 18.79404230595791" fill="#76ff27" stroke="none" /><line stroke="#e1ed5e" stroke-width="0.3" x1="172.23445277983987" x2="176.4835382374775" y1="55.19839476539836" y2="52.563006222186495" /><path d="M 173.08426987136738 54.67131705675599 a86.0,86.0 0 0,1 12.851231095245387,41.99856678651699" fill="none" id="id51" stroke="none" /><text fill="#e1ed5e" style="font-size:6.75px; font-family:Arial;" text-anchor="middle"><textPath startOffset="22.20632615414155" xlink:href="#id51">March</textPath></text><path d="M 118.03404312379186 89.2402003453031 l 30.20975130942315 -18.0242926933439 a56.17817791291249,56.17817791291249 0 0,0 0.48832299447080546,0.8347022897749702 l -30.51553397836428 17.50161099121503" fill="#7bff26" stroke="none" /><path d="M 118.73160827565052 90.50648371742162 l 36.62327512188576 -18.561335128010843 a62.0583419342241,62.0583419342241 0 0,0 0.47471672592603475,0.9569999518596195 l -36.937351860765204 17.928175587652273" fill="#38ff2e" stroke="none" /><path d="M 119.47837535516314 92.15188598940014 l 13.609705874532791 -5.483543745641581 a35.67287790454406,35.67287790454406 0 0,0 0.22458021682206167,0.5715321556769064 l -13.702079641236553 5.24846258506889" fill="#ff6a09" stroke="none" /><path d="M 120.08093135843002 93.85539295169968 l 59.45381832092176 -18.192400769785014 a83.17491422354877,83.17491422354877 0 0,0 0.40713765192480045,1.3726657633219082 l -59.758161869958265 17.166305619716578" fill="#4cdaff" stroke="none" /><path d="M 120.45610955862082 95.25157060432595 l 22.852708073117956 -5.304746265372819 a44.46031967418896,44.46031967418896 0 0,0 0.16663222447821002,0.7469795890400525 l -22.940634684598205 4.910588506782802" fill="#ffeb16" stroke="none" /><path d="M 120.73433829027371 96.67025291283417 l 31.86641475190161 -5.117457823495457 a53.27470780217022,53.27470780217022 0 0,0 0.13761137747671823,0.9066870407403859 l -31.949782022817626 4.568171670362989" fill="#9fff22" stroke="none" /><path d="M 120.78858239683441 97.02765380044208 l 30.341158977019447 -4.338171158282493 a51.649725236408266,51.649725236408266 0 0,0 0.11826311604428366,0.8811975804573762 l -30.411338092121564 3.815255235760452" fill="#b3ff20" stroke="none" /><line stroke="#e1ed5e" stroke-width="0.3" x1="184.98032266829074" x2="189.97916517819016" y1="98.17113171792111" y2="98.06355123074" /><path d="M 185.9800911702706 98.14961562048488 a86.0,86.0 0 0,1 -9.607161424134198,41.387399972396054" fill="none" id="id52" stroke="none" /><text fill="#e1ed5e" style="font-size:6.75px; font-family:Arial;" text-anchor="middle"><textPath startOffset="21.466115282336823" xlink:href="#id52">April</textPath></text><path d="M 120.99980553446 99.90962569577887 l 20.531470447712774 -0.08835878757562267 a41.531660576306166,41.531660576306166 0 0,0 -0.0030767103300000168,0.7149191263236367 l -20.529949440093272 -0.26506981695169884" fill="#ffc112" stroke="none" /><path d="M 120.99824983174949 100.27111621757518 l 29.370839948489905 0.3792178442319872 a50.37328795782308,50.37328795782308 0 0,0 -0.018657156004096034,0.8669247276235442 l -29.3599607298008 -0.8847323876456462" fill="#c4ff1e" stroke="none" /><path d="M 120.95626037817324 101.35467743843564 l 20.581843106499832 1.3304739488175756 a41.624801249686186,41.624801249686186 0 0,0 -0.052374785425223176,0.7146123351664132 l -20.55589176241027 -1.684559420480759" fill="#ffc312" stroke="none" /><path d="M 120.92983693683757 101.71520430193887 l 24.024152978156412 1.9687841172831204 a45.10468911266702,45.10468911266702 0 0,0 -0.07007422343322695,0.7732632163947994 l -23.98670415844611 -2.38202872222649" fill="#fff417" stroke="none" /><path d="M 120.89721153311464 102.0752229133903 l 43.23628344524012 4.293631518885565 a64.44895255097771,64.44895255097771 0 0,0 -0.11913142898556504,1.1030090760711402 l -43.1559697147535 -5.037236916841497" fill="#32ff45" stroke="none" /><path d="M 120.81339534386255 102.79330883721812 l 29.09370007744418 3.9045858780394687 a50.35454266506737,50.35454266506737 0 0,0 -0.12268752195634325,0.858076242811906 l -29.022178504471235 -4.4048075928317845" fill="#c4ff1e" stroke="none" /><path d="M 120.76222939487914 103.15116336523771 l 9.471547310213776 1.4375331438839973 a30.580016178972915,30.580016178972915 0 0,0 -0.08346632757057827,0.5197449014568223 l -9.445399228281909 -1.6003572750340247" fill="#ff1902" stroke="none" /><path d="M 120.49622156327973 104.57218783832717 l 60.6533560423469 13.530227315037402 a83.14416022762141,83.14416022762141 0 0,0 -0.3236265049135815,1.3941745130751608 l -60.411468971502764 -14.572270485461129" fill="#4cdbff" stroke="none" /><path d="M 120.41448212921028 104.9243191809786 l 7.797581628365547 1.880908882957405 a29.021227928254625,29.021227928254625 0 0,0 -0.12132073606499749,0.48461603337817544 l -7.764049578005489 -2.0148527557329765" fill="#ff0000" stroke="none" /><path d="M 120.23288151984713 105.62410040840565 l 28.262765807376056 7.856153982022534 a50.33433289631509,50.33433289631509 0 0,0 -0.23922557335611772,0.8327756042994514 l -28.12334759713384 -8.341487061826568" fill="#c4ff1e" stroke="none" /><path d="M 120.13307415673323 105.97154293290107 l 14.096353073558646 4.181029529856258 a35.70333900527211,35.70333900527211 0 0,0 -0.17983130470930064,0.5876991087596494 l -14.022294996343213 -4.423055611167965" fill="#ff6a09" stroke="none" /><path d="M 120.02730092923936 106.31721596034902 l 28.029506249064866 8.841353353750211 a50.390861669781586,50.390861669781586 0 0,0 -0.26804998697538013,0.8249730320541744 l -27.87316401107324 -9.322525285782183" fill="#c4ff1e" stroke="none" /><path d="M 119.67450827220406 107.3425965602758 l 28.632284612378534 10.685670594609288 a51.56127088621719,51.56127088621719 0 0,0 -0.31748415604841235,0.8288509483485362 l -28.444106176736614 -11.176945109790967" fill="#b4ff20" stroke="none" /><path d="M 119.41010516605496 108.01547362559984 l 21.699045431878204 8.96069984536115 a44.476428910150915,44.476428910150915 0 0,0 -0.2983076843840372,0.7051112472184359 l -21.541586766301858 -9.332885618245749" fill="#ffeb16" stroke="none" /><path d="M 119.26925614724726 108.34839909993367 l 25.40844577836068 11.008201055912705 a48.690605037797425,48.690605037797425 0 0,0 -0.3398115361008386,0.7661853062817943 l -25.215193157528567 -11.443934698687187" fill="#daff1c" stroke="none" /><path d="M 119.12269723197855 108.67885076344098 l 40.047032163781566 18.175376174808605 a64.97850707132696,64.97850707132696 0 0,0 -0.47101800648135594,1.0145308822318435 l -39.72823954046037 -18.862027124319276" fill="#32ff4c" stroke="none" /><path d="M 118.81262510543309 109.33194174019688 l 22.043921350424693 10.934815774765823 a45.60700437948059,45.60700437948059 0 0,0 -0.35491225346467487,0.7002755466200139 l -21.85243042717375 -11.312645533088533" fill="#fffb17" stroke="none" /><path d="M 118.64920377521936 109.65438752849418 l 20.84659384876469 10.791940400829798 a44.474378643755756,44.474378643755756 0 0,0 -0.35780165333899605,0.6768258870437254 l -20.657739687200802 -11.149181302959658" fill="#ffeb16" stroke="none" /><line stroke="#e1ed5e" stroke-width="0.3" x1="174.80103733775053" x2="179.2010983576182" y1="140.37084112569926" y2="142.7455964860345" /><path d="M 175.68104954172406 140.8457921977663 a86.0,86.0 0 0,1 -30.038265399797805,32.042727171017184" fill="none" id="id53" stroke="none" /><text fill="#e1ed5e" style="font-size:6.75px; font-family:Arial;" text-anchor="middle"><textPath startOffset="22.206326154141568" xlink:href="#id53">May</textPath></text><path d="M 118.48025628344425 109.97397251340804 l 26.00040966744059 14.032671808384103 a50.54551033501632,50.54551033501632 0 0,0 -0.4198252094637799,0.762104701652124 l -25.755008048525298 -14.478147028434034" fill="#c2ff1e" stroke="none" /><path d="M 117.94076556474637 110.91462005526583 l 53.8222966942391 32.74386016579747 a84.0,84.0 0 0,0 -0.7621414413281484,1.228814674538906 l -53.25069061324299 -33.665471171701654" fill="#4dd2ff" stroke="none" /><path d="M 116.93607887273984 112.41649034213515 l 16.748524873674935 12.278987296978297 a41.76744121174928,41.76744121174928 0 0,0 -0.4300827895721845,0.5761661797569341 l -16.534680817407658 -12.565466356244546" fill="#ffc512" stroke="none" /><line stroke="#e1ed5e" stroke-width="0.3" x1="143.8653032363475" x2="146.44561519142675" y1="172.8068346515853" y2="177.08958963109032" /><path d="M 144.38136562736335 173.6633856474863 a86.0,86.0 0 0,1 -40.68145358897372,12.25698825130547" fill="none" id="id54" stroke="none" /><text fill="#e1ed5e" style="font-size:6.75px; font-family:Arial;" text-anchor="middle"><textPath startOffset="21.466115282336833" xlink:href="#id54">June</textPath></text><line stroke="#e1ed5e" stroke-width="0.3" x1="102.19456741930631" x2="102.32365962044197" y1="184.97166512339345" y2="189.96999836594603" /><path d="M 102.22038585953345 185.97133177190398 a86.0,86.0 0 0,1 -42.740103519485714,-10.115201625700543" fill="none" id="id55" stroke="none" /><text fill="#e1ed5e" style="font-size:6.75px; font-family:Arial;" text-anchor="middle"><textPath startOffset="22.20632615414155" xlink:href="#id55">July</textPath></text><line stroke="#e1ed5e" stroke-width="0.3" x1="58.666819895761336" x2="56.23545636021788" y1="174.27360380694188" y2="178.64263932499728" /><path d="M 58.180547188652646 175.14741091055294 a86.0,86.0 0 0,1 -31.652253787137756,-30.449443065178592" fill="none" id="id56" stroke="none" /><text fill="#e1ed5e" style="font-size:6.75px; font-family:Arial;" text-anchor="middle"><textPath startOffset="22.20632615414155" xlink:href="#id56">August</textPath></text><line stroke="#e1ed5e" stroke-width="0.3" x1="26.63291911575756" x2="22.317208475507996" y1="142.92168965132927" y2="145.44649492493687" /><path d="M 25.769776987707644 143.4266507060508 a86.0,86.0 0 0,1 -11.730757126820373,-40.83630448921669" fill="none" id="id57" stroke="none" /><text fill="#e1ed5e" style="font-size:6.75px; font-family:Arial;" text-anchor="middle"><textPath startOffset="21.46611528233685" xlink:href="#id57">September</textPath></text><line stroke="#e1ed5e" stroke-width="0.3" x1="15.007084014347285" x2="10.007500721073583" y1="101.09737516637583" y2="101.16192664675087" /><path d="M 14.007167355692545 101.11028546245083 a86.0,86.0 0 0,1 10.666146001902534,-42.60595125391555" fill="none" id="id58" stroke="none" /><text fill="#e1ed5e" style="font-size:6.75px; font-family:Arial;" text-anchor="middle"><textPath startOffset="22.20632615414155" xlink:href="#id58">October</textPath></text><line stroke="#e1ed5e" stroke-width="0.3" x1="26.266209847984243" x2="21.928928074336255" y1="57.711370442889674" y2="55.22380399835377" /><path d="M 25.398753493254645 57.213857153982495 a86.0,86.0 0 0,1 29.58750427330803,-30.492523968695096" fill="none" id="id59" stroke="none" /><text fill="#e1ed5e" style="font-size:6.75px; font-family:Arial;" text-anchor="middle"><textPath startOffset="21.46611528233685" xlink:href="#id59">November</textPath></text><line stroke="#e1ed5e" stroke-width="0.3" x1="56.762969772571076" x2="54.21961505331055" y1="26.818313649435495" y2="22.513508569990535" /><path d="M 56.25429882871897 25.957352633546506 a86.0,86.0 0 0,1 42.265352541879196,-11.944610805530505" fill="none" id="id60" stroke="none" /><text fill="#e1ed5e" style="font-size:6.75px; font-family:Arial;" text-anchor="middle"><textPath startOffset="22.20632615414155" xlink:href="#id60">December</textPath></text></svg>