<?xml version="1.0" encoding="utf-8" ?>
<svg baseProfile="full" height="200mm" version="1.1" viewBox="0,0,200,200" width="200mm" xmlns="http://www.w3.org/2000/svg" xmlns:ev="http://www.w3.org/2001/xml-events" xmlns:xlink="http://www.w3.org/1999/xlink"><defs /><rect fill="#1a1a1a" height="200" width="200" x="0" y="0" /><text alignment-baseline="middle" fill="#e1ed5e" style="dominant-baseline: central; font-size:9.0px; font-family:Arial;" text-anchor="middle" x="100.0" y="100.0">2023</text><line stroke="#e1ed5e" stroke-width="0.3" x1="100.0" x2="100.0" y1="15.0" y2="10.0" /><path d="M 100.0 14.0 a86.0,86.0 0 0,1 42.46469731375804,11.215312516191453" fill="none" id="id25" stroke="none" /><text fill="#e1ed5e" style="font-size:6.75px; font-family:Arial;" text-anchor="middle"><textPath startOffset="22.20632615414155" xlink:href="#id25">January</textPath></text><line stroke="#e1ed5e" stroke-width="0.3" x1="143.23703022742887" x2="145.7803849466894" y1="26.81831364943548" y2="22.513508569990506" /><path d="M 143.74570117128098 25.957352633546492 a86.0,86.0 0 0,1 28.547481713284135,27.462654790039103" fill="none" id="id26" stroke="none" /><text fill="#e1ed5e" style="font-size:6.75px; font-family:Arial;" text-anchor="middle"><textPath startOffset="19.985693538727396" xlink:href="#id26">February</textPath></text><line stroke="#e1ed5e" stroke-width="0.3" x1="172.23445277983987" x2="176.4835382374775" y1="55.19839476539836" y2="52.563006222186495" /><path d="M 173.08426987136738 54.67131705675599 a86.0,86.0 0 0,1 12.851231095245387,41.99856678651699" fill="none" id="id27" stroke="none" /><text fill="#e1ed5e" style="font-size:6.75px; font-family:Arial;" text-anchor="middle"><textPath startOffset="22.20632615414155" xlink:href="#id27">March</textPath></text><line stroke="#e1ed5e" stroke-width="0.3" x1="184.98032266829074" x2="189.97916517819016" y1="98.17113171792111" y2="98.06355123074" /><path d="M 185.9800911702706 98.14961562048488 a86.0,86.0 0 0,1 -9.607161424134198,41.387399972396054" fill="none" id="id28" stroke="none" /><text fill="#e1ed5e" style="font-size:6.75px; font-family:Arial;" text-anchor="middle"><textPath startOffset="21.466115282336823" xlink:href="#id28">April</textPath></text><path d="M 120.92983693683757 101.71520430193887 l 9.918909398708816 0.8128565990527903 a30.952160544847423,30.952160544847423 0 0,0 -0.048086987327258426,0.530635898132271 l -9.903447815104483 -0.9834738857336317" fill="#ff5e08" stroke="none" /><path d="M 120.32669344350535 105.2749913415812 l 10.803833076046818 2.8037086351712914 a32.16170198697391,32.16170198697391 0 0,0 -0.14367386340573848,0.534663893721837 l -10.753971136299302 -2.989263462068677" fill="#ff6f0a" stroke="none" /><path d="M 120.02730092923936 106.31721596034902 l 6.5394322447230335 2.0627345588876795 a27.85704367375277,27.85704367375277 0 0,0 -0.14818322105414378,0.45606105992394297 l -6.5029567726526425 -2.1749945187894175" fill="#ff3004" stroke="none" /><line stroke="#e1ed5e" stroke-width="0.3" x1="174.80103733775053" x2="179.2010983576182" y1="140.37084112569926" y2="142.7455964860345" /><path d="M 175.68104954172406 140.8457921977663 a86.0,86.0 0 0,1 -30.038265399797805,32.042727171017184" fill="none" id="id29" stroke="none" /><text fill="#e1ed5e" style="font-size:6.75px; font-family:Arial;" text-anchor="middle"><textPath startOffset="22.206326154141568" xlink:href="#id29">May</textPath></text><line stroke="#e1ed5e" stroke-width="0.3" x1="143.8653032363475" x2="146.44561519142675" y1="172.8068346515853" y2="177.08958963109032" /><path d="M 144.38136562736335 173.6633856474863 a86.0,86.0 0 0,1 -40.68145358897372,12.25698825130547" fill="none" id="id30" stroke="none" /><text fill="#e1ed5e" style="font-size:6.75px; font-family:Arial;" text-anchor="middle"><textPath startOffset="21.466115282336833" xlink:href="#id30">June</textPath></text><line stroke="#e1ed5e" stroke-width="0.3" x1="102.19456741930631" x2="102.32365962044197" y1="184.97166512339345" y2="189.96999836594603" /><path d="M 102.22038585953345 185.97133177190398 a86.0,86.0 0 0,1 -42.740103519485714,-10.115201625700543" fill="none" id="id31" stroke="none" /><text fill="#e1ed5e" style="font-size:6.75px; font-family:Arial;" text-anchor="middle"><textPath startOffset="22.20632615414155" xlink:href="#id31">July</textPath></text><path d="M 92.40401165467489 119.57807347666478 l -3.1713661224964445 8.173951320745923 a29.767613317023176,29.767613317023176 0 0,0 -0.47611018712970476,-0.18945406925334016 l 3.311597385668007 -8.118150407086516" fill="#ff4d07" stroke="none" /><line stroke="#e1ed5e" stroke-width="0.3" x1="58.666819895761336" x2="56.23545636021788" y1="174.27360380694188" y2="178.64263932499728" /><path d="M 58.180547188652646 175.14741091055294 a86.0,86.0 0 0,1 -31.652253787137756,-30.449443065178592" fill="none" id="id32" stroke="none" /><text fill="#e1ed5e" style="font-size:6.75px; font-family:Arial;" text-anchor="middle"><textPath startOffset="22.20632615414155" xlink:href="#id32">August</textPath></text><path d="M 88.8546689885994 117.79835938074946 l -7.809401298486964 12.471099397297799 a35.71445101993586,35.71445101993586 0 0,0 -0.51823062646087,-0.33075930504078543 l 8.022913726994757 -12.33482566343321" fill="#ffa00e" stroke="none" /><path d="M 87.07902340077011 116.55440617244103 l -3.2675768129503493 4.186432298349221 a26.3106754388865,26.3106754388865 0 0,0 -0.35462093069153616,-0.2817323145630356 l 3.3391552363592436 -4.129566069781054" fill="#ff1902" stroke="none" /><path d="M 86.79598089348748 116.32954008644616 l -4.343820387594629 5.372045327665652 a27.90851985320858,27.90851985320858 0 0,0 -0.3709572171016244,-0.30527253503587093 l 4.435647733240942 -5.2964776737726" fill="#ff3104" stroke="none" /><path d="M 86.51685102203217 116.09983520530335 l -9.508425503106858 11.353733754041528 a35.80936952425034,35.80936952425034 0 0,0 -0.4691616103871758,-0.39982970261572653 l 9.70245259007109 -11.18837966120285" fill="#ffa20e" stroke="none" /><path d="M 85.44109423537348 115.13401014063109 l -10.126577143218677 10.526596136621531 a35.606737858299994,35.606737858299994 0 0,0 -0.4380477343540197,-0.42872190489210454 l 10.30627482994849 -10.350724128806858" fill="#ff9f0e" stroke="none" /><path d="M 84.9287848128048 114.62390073753433 l -10.653968000193956 10.337757676506172 a35.84507554468212,35.84507554468212 0 0,0 -0.42586245303450165,-0.44651507943102403 l 10.830337004607415 -10.152835480492646" fill="#ffa20f" stroke="none" /><path d="M 84.19399662182784 113.82643327865904 l -12.690922737521298 11.10149050817467 a37.86127549839654,37.86127549839654 0 0,0 -0.42487110325721383,-0.4942210794792827 l 12.880136350349291 -10.881392329533856" fill="#ffbe11" stroke="none" /><path d="M 83.72743513129214 113.27417163493432 l -11.44533984597279 9.336414189243888 a35.770390451945644,35.770390451945644 0 0,0 -0.3850973599994637,-0.48046816802532594 l 11.604355118027115 -9.138018187640302" fill="#ffa10e" stroke="none" /><path d="M 83.28015986056508 112.70617746262583 l -23.632393103108182 17.959345192924545 a50.682117234767084,50.682117234767084 0 0,0 -0.5218779443836777,-0.699140790576731 l 23.938032314186945 -17.549891522838507" fill="#a0ff22" stroke="none" /><path d="M 82.85270091963577 112.12312394758628 l -15.051436194785277 10.641350904500142 a39.433233047905574,39.433233047905574 0 0,0 -0.3870824232456866,-0.5576211006567344 l 15.232379525193096 -10.380688541656394" fill="#ffd213" stroke="none" /><path d="M 82.6465618267979 111.8261652097733 l -8.26040016382344 5.629366126827225 a30.996197970046616,30.996197970046616 0 0,0 -0.2966733112406473,-0.44348634714130847 l 8.356076580474818 -5.486342865480096" fill="#ff5e08" stroke="none" /><line stroke="#e1ed5e" stroke-width="0.3" x1="26.63291911575756" x2="22.317208475507996" y1="142.92168965132927" y2="145.44649492493687" /><path d="M 25.769776987707644 143.4266507060508 a86.0,86.0 0 0,1 -11.730757126820373,-40.83630448921669" fill="none" id="id33" stroke="none" /><text fill="#e1ed5e" style="font-size:6.75px; font-family:Arial;" text-anchor="middle"><textPath startOffset="21.46611528233685" xlink:href="#id33">September</textPath></text><path d="M 81.35079622478065 109.6543875284942 l -18.666291399174465 9.663233511711079 a42.01924157767712,42.01924157767712 0 0,0 -0.32699239777124783,-0.6451870225794959 l 18.829862466731978 -9.340492277428899" fill="#fff417" stroke="none" /><path d="M 81.02952815118164 109.00673069616217 l -13.337542043910386 6.332349047275999 a35.76443944854035,35.76443944854035 0 0,0 -0.25925026183632727,-0.5584020000094224 l 13.44456692258654 -6.10182697998775" fill="#ffa10e" stroke="none" /><path d="M 80.73074385275274 108.34839909993369 l -19.016615011338825 8.238942408118135 a41.72466690911496,41.72466690911496 0 0,0 -0.2798513521060322,-0.6614859296256488 l 19.15561734463716 -7.910381952826327" fill="#fff016" stroke="none" /><path d="M 80.32549172779594 107.34259656027581 l -13.945150666305544 5.204379895969429 a35.884649717327335,35.884649717327335 0 0,0 -0.2109944591626504,-0.5805661331012275 l 14.032669386473419 -4.9635659658620845" fill="#ffa30f" stroke="none" /><path d="M 80.0844068197444 106.66101706037122 l -22.5369991583717 7.537778790958369 a44.764141898370085,44.764141898370085 0 0,0 -0.2381191203169582,-0.7328552964861588 l 22.663410529704908 -7.148724594494407" fill="#e7ff1a" stroke="none" /><path d="M 79.86692584326677 105.97154293290107 l -26.876112132997328 7.971552492294517 a49.033391741329716,49.033391741329716 0 0,0 -0.233042549249181,-0.811251686246652 l 27.009347319132615 -7.507743330543269" fill="#b4ff20" stroke="none" /><path d="M 79.50377843672027 104.57218783832718 l -20.489154868712056 4.570611437776483 a41.99275961252356,41.99275961252356 0 0,0 -0.15130583441405124,-0.7068504860764822 l 20.564794741850548 -4.217247132283838" fill="#fff417" stroke="none" /><path d="M 79.4281124754447 104.21870165774334 l -14.570130258052805 2.987914093921361 a35.873342810857274,35.873342810857274 0 0,0 -0.11884337446372546,-0.6059798060160517 l 14.619403565492195 -2.7366705608373545" fill="#ffa30f" stroke="none" /><path d="M 79.29508885075956 103.50808413554451 l -29.23921209911746 4.954071783326536 a50.655932819783786,50.655932819783786 0 0,0 -0.13826234287725334,-0.8609597410783832 l 29.320156196356006 -4.450032812554938" fill="#a1ff22" stroke="none" /><path d="M 79.23777060512086 103.15116336523772 l -7.987607543554618 1.2123099012360328 a29.079082223030383,29.079082223030383 0 0,0 -0.07085042083369977,-0.49552767829360295 l 8.007292015404916 -1.0746367509620292" fill="#ff4206" stroke="none" /><path d="M 79.18660465613746 102.79330883721812 l -14.778337414406714 1.9833602262893784 a35.91083413231064,35.91083413231064 0 0,0 -0.07694920655432148,-0.6133608872375981 l 14.810288130207883 -1.7286815847643717" fill="#ffa30f" stroke="none" /><path d="M 79.1416061653843 102.43462659150553 l -7.966677179874757 0.9298838760957139 a29.02076238965848,29.02076238965848 0 0,0 -0.05364377165006552,-0.496674702121478 l 7.981503253025874 -0.7926128520894538" fill="#ff4206" stroke="none" /><path d="M 79.07016306316243 101.71520430193888 l -9.452723325973734 0.7746525576227415 a30.484411677191126,30.484411677191126 0 0,0 -0.03835728874307192,-0.5233547298913924 l 9.464657173381141 -0.6118246912345885" fill="#ff5708" stroke="none" /><line stroke="#e1ed5e" stroke-width="0.3" x1="15.007084014347285" x2="10.007500721073583" y1="101.09737516637583" y2="101.16192664675087" /><path d="M 14.007167355692545 101.11028546245083 a86.0,86.0 0 0,1 10.666146001902534,-42.60595125391555" fill="none" id="id34" stroke="none" /><text fill="#e1ed5e" style="font-size:6.75px; font-family:Arial;" text-anchor="middle"><textPath startOffset="22.20632615414155" xlink:href="#id34">October</textPath></text><path d="M 79.12142395522702 97.74499172005258 l -19.9202850123537 -2.1515072457738857 a41.03613581512216,41.03613581512216 0 0,0 0.0818957126718358,-0.7016324533033816 l 19.880298946678273 2.494083437402129" fill="#ffe715" stroke="none" /><path d="M 79.21141760316559 97.0276538004421 l -14.740100415659464 -2.107535791293728 a35.8900056203921,35.8900056203921 0 0,0 0.09270577568269484,-0.6108152316657591 l 14.701638746537467 2.360950135351579" fill="#ffa30f" stroke="none" /><path d="M 79.26566170972629 96.67025291283419 l -15.782477421021133 -2.5345230450665883 a36.98469269679638,36.98469269679638 0 0,0 0.10635413067648267,-0.6277080996147636 l 15.736511428824427 2.80581693299718" fill="#ffb210" stroke="none" /><path d="M 79.32604984820605 96.31383870115002 l -11.668001772731975 -2.080402451092564 a32.852018381988294,32.852018381988294 0 0,0 0.10405372479894621,-0.5558591586058563 l 11.630462324023167 2.280939687160993" fill="#ff790b" stroke="none" /><path d="M 79.46518482838121 95.60439243477599 l -15.14935915543939 -3.242816512124249 a36.49254471517836,36.49254471517836 0 0,0 0.13676990960303176,-0.613112686866152 l 15.09129485883432 3.50310736854036" fill="#ffab0f" stroke="none" /><path d="M 79.62865764111835 94.90015583598534 l -28.940181537652617 -7.245001989570644 a50.83327272126161,50.83327272126161 0 0,0 0.21980226791083798,-0.8469878012485177 l 28.81118293787147 7.742086216368025" fill="#9fff22" stroke="none" /><path d="M 79.81627453868168 94.20196356495316 l -9.297922564198306 -2.6709486264457354 a30.673951135649816,30.673951135649816 0 0,0 0.15014768042992668,-0.5062233359994689 l 9.250568986656672 2.830601349191743" fill="#ff5a08" stroke="none" /><path d="M 79.91906864156998 93.8553929516997 l -17.316079538599237 -5.298584138486107 a39.108605812146656,39.108605812146656 0 0,0 0.20251649616866188,-0.642032635477739 l 17.222307558662372 5.59586694039026" fill="#ffce13" stroke="none" /><path d="M 80.02781315780177 93.51064311812611 l -14.201704018000147 -4.614413355518249 a35.93255529473997,35.93255529473997 0 0,0 0.1961963824662054,-0.5866022112270375 l 14.120170341762169 4.8581886696676095" fill="#ffa30f" stroke="none" /><path d="M 80.14247586403 93.16781622104843 l -8.445935505011795 -2.905910281679433 a29.931861011009357,29.931861011009357 0 0,0 0.171818744309817,-0.48575472752479837 l 8.394663679892169 3.0508626356308426" fill="#ff4f07" stroke="none" /><path d="M 80.38941819471856 92.48833698450439 l -12.264058052600825 -4.69764090674773 a34.132971864978344,34.132971864978344 0 0,0 0.21488566867890002,-0.5468605880874702 l 12.181378834040235 4.9080504997309635" fill="#ff8b0c" stroke="none" /><path d="M 80.52162464483688 92.15188598940014 l -27.608402253990548 -11.123817289124482 a50.76513373227097,50.76513373227097 0 0,0 0.3335470246369156,-0.8077105768709588 l 27.412833542467432 11.597402436448752" fill="#a0ff22" stroke="none" /><path d="M 80.95270993114464 91.15688171328213 l -27.290749293475 -12.670323351140343 a51.08857076734883,51.08857076734883 0 0,0 0.3771840136101551,-0.7944457265791979 l 27.068607086023093 13.138211493360073" fill="#9cff22" stroke="none" /><path d="M 81.26839172434947 90.50648371742162 l -3.2406463504625194 -1.6424179088875215 a24.63308757893345,24.63308757893345 0 0,0 0.19494222798854782,-0.3765663356089404 l 3.2118946893138576 1.6979569667567975" fill="#ff0000" stroke="none" /><path d="M 81.43458229118936 90.18545643968196 l -13.215328861732154 -6.986237681894185 a35.948325453764014,35.948325453764014 0 0,0 0.2939064917652255,-0.5445640925807452 l 13.093114270748456 7.212682757807403" fill="#ffa40f" stroke="none" /><line stroke="#e1ed5e" stroke-width="0.3" x1="26.266209847984243" x2="21.928928074336255" y1="57.711370442889674" y2="55.22380399835377" /><path d="M 25.398753493254645 57.213857153982495 a86.0,86.0 0 0,1 29.58750427330803,-30.492523968695096" fill="none" id="id35" stroke="none" /><text fill="#e1ed5e" style="font-size:6.75px; font-family:Arial;" text-anchor="middle"><textPath startOffset="21.46611528233685" xlink:href="#id35">November</textPath></text><path d="M 81.78341655067845 89.55222093294921 l -25.833892441881282 -14.816543476750642 a50.781201441465264,50.781201441465264 0 0,0 0.4414103353291939,-0.7545133483400661 l 25.575022432081763 15.2590362374446" fill="#9fff22" stroke="none" /><path d="M 81.96595687620814 89.24020034530311 l -12.800287484140993 -7.637140928768181 a35.90547822924587,35.90547822924587 0 0,0 0.3212415292501656,-0.5280366093144244 l 12.66693015660461 7.85634531128968" fill="#ffa30f" stroke="none" /><path d="M 82.7489923806493 88.02491185347247 l -36.542113570913436 -25.36634617106373 a65.48345290442026,65.48345290442026 0 0,0 0.6507414396580755,-0.9204276173407805 l 36.100059511451484 25.991600288736297" fill="#35ff65" stroke="none" /><path d="M 83.17141714833178 87.43820079747576 l -11.965176534580205 -8.931479636459803 a35.931067543888645,35.931067543888645 0 0,0 0.37423756977528966,-0.492452774189442 l 11.809663024580807 9.13611718653027" fill="#ffa30f" stroke="none" /><path d="M 84.31358615837235 86.03803664274999 l -6.6600709977996315 -5.9279111316824356 a29.91609085198532,29.91609085198532 0 0,0 0.34568236634011423,-0.38171110283715237 l 6.557044990843472 6.0416750217891435" fill="#ff4f07" stroke="none" /><path d="M 84.5562425177563 85.77008943001954 l -17.913544938609018 -16.505577917861665 a45.35834958838893,45.35834958838893 0 0,0 0.5340031542732221,-0.5696373326854794 l 17.62677446236534 16.811484667425194" fill="#e0ff1b" stroke="none" /><path d="M 85.31137513191541 84.99185889309783 l -31.217134778494362 -31.896189596808814 a65.63044268853108,65.63044268853108 0 0,0 0.8141823833093612,-0.7832428076677402 l 30.663469151572574 32.428815491238865" fill="#35ff67" stroke="none" /><path d="M 86.10567301691215 84.25364557470407 l -10.195477319594668 -11.554471087719103 a36.40952821767448,36.40952821767448 0 0,0 0.47350799736153276,-0.41062146928663146 l 9.995075523586362 11.728257550425415" fill="#ffaa0f" stroke="none" /><path d="M 86.93701828274178 83.55741782278169 l -9.317991705320447 -11.728703879218738 a35.97956822164181,35.97956822164181 0 0,0 0.48823836298039974,-0.3810777866147883 l 9.114720787180621 11.887360055056748" fill="#ffa40f" stroke="none" /><path d="M 87.22198572758235 83.33499621200491 l -9.069276635708073 -11.828092085849123 a35.90488312890534,35.90488312890534 0 0,0 0.49369871915842434,-0.37184363982228785 l 8.86433176279126 11.982452315177266" fill="#ffa30f" stroke="none" /><path d="M 88.39885842347998 82.49532879139004 l -16.47585766471889 -24.860007905124856 a50.824048665983405,50.824048665983405 0 0,0 0.7333982204255755,-0.477022603363499 l 16.045492418509028 25.139929432647893" fill="#9fff22" stroke="none" /><path d="M 89.00827224532344 82.1063720568725 l -10.686732215290242 -17.39712031230756 a41.417297583231395,41.417297583231395 0 0,0 0.6106841165009772,-0.3679303472006263 l 10.385686032571616 17.578497268966807" fill="#ffec16" stroke="none" /><line stroke="#e1ed5e" stroke-width="0.3" x1="56.762969772571076" x2="54.21961505331055" y1="26.818313649435495" y2="22.513508569990535" /><path d="M 56.25429882871897 25.957352633546506 a86.0,86.0 0 0,1 42.265352541879196,-11.944610805530505" fill="none" id="id36" stroke="none" /><text fill="#e1ed5e" style="font-size:6.75px; font-family:Arial;" text-anchor="middle"><textPath startOffset="22.20632615414155" xlink:href="#id36">December</textPath></text><path d="M 89.3179101791058 81.91981866633112 l -7.590913631868668 -12.848150245278093 a35.9230336892915,35.9230336892915 0 0,0 0.5350877294175603,-0.3099573504017569 l 7.3686291699857875 12.976911753069897" fill="#ffa30f" stroke="none" /><path d="M 89.94658935756843 81.56283822128135 l -30.16023192729471 -55.31148533615593 a84.0,84.0 0 0,0 1.2754198138867787,-0.6812850939930022 l 29.20366706687963 55.822449156650684" fill="#4dd2ff" stroke="none" /><path d="M 90.91171255644093 81.06846463323043 l -12.915748087907616 -26.904402312648998 a50.84398452739114,50.84398452739114 0 0,0 0.7922504553194267,-0.3719722116912821 l 12.450719421288582 27.122739506980288" fill="#9fff22" stroke="none" /><path d="M 91.23893434514133 80.91482961587045 l -3.53874573567706 -7.708829949705248 a29.48226270373921,29.48226270373921 0 0,0 0.4630370203692045,-0.20775121383448544 l 3.4055265968410815 7.768601494056263" fill="#ff4806" stroke="none" /><path d="M 91.90106846888425 80.62456947434976 l -14.886719685121836 -35.61415501609645 a59.60029093794426,59.60029093794426 0 0,0 0.9499608930550197,-0.3875129003746618 l 14.271474922478436 35.86512880265469" fill="#3fff2d" stroke="none" /><path d="M 92.23578459929587 80.48803036053334 l -11.658369371331565 -29.298227506475353 a52.532581743644,52.532581743644 0 0,0 0.8430649730304136,-0.3270961117355937 l 11.152321233301475 29.4945663221015" fill="#8bff24" stroke="none" /><path d="M 93.25333710446033 80.11325718540243 l -9.554891343149162 -28.164393227391685 a50.741032168479514,50.741032168479514 0 0,0 0.8295365695518814,-0.2734851646853622 l 9.068671951354872 28.32469211633628" fill="#a0ff22" stroke="none" /><path d="M 93.94186890950719 79.89281104454417 l -8.670410241198717 -28.777452061856945 a51.05524514827916,51.05524514827916 0 0,0 0.8436509287134144,-0.2462848405231511 l 8.173769094761882 28.922435231298795" fill="#9cff22" stroke="none" /><path d="M 95.692805502759 79.44645832069477 l -4.044994090707466 -19.302345108667446 a40.72162528515224,40.72162528515224 0 0,0 0.6872910410547788,-0.1378641171371692 l 3.7121366401855513 19.369113181881822" fill="#ffe315" stroke="none" /><path d="M 96.04723909329186 79.375362276772 l -3.6264460991553182 -18.92199877077321 a40.26637352464707,40.26637352464707 0 0,0 0.681853280040847,-0.12460432863098332 l 3.3001976980115777 18.98161858075493" fill="#ffdd14" stroke="none" /><path d="M 97.11714578562143 79.19881850522333 l -2.301705748282256 -16.607915439772125 a37.76665454425232,37.76665454425232 0 0,0 0.6447042575069638,-0.0837011157604895 l 2.015486762267434 16.64507487869675" fill="#ffbc11" stroke="none" /><path d="M 97.47563105711357 79.15227682838746 l -2.867550253203119 -23.68191623808759 a44.85489470030086,44.85489470030086 0 0,0 0.7673034136625504,-0.08621547889306425 l 2.4594801360308507 23.727767670451257" fill="#e6ff1a" stroke="none" /><path d="M 98.55514903715128 79.0497635885617 l -2.050574817471088 -29.733189311553527 a50.80381525440539,50.80381525440539 0 0,0 0.872949743215712,-0.05265871243311057 l 1.538463025415753 29.764081293366946" fill="#9fff22" stroke="none" /></svg>