<?xml version="1.0" encoding="utf-8" ?>
<svg baseProfile="full" height="200mm" version="1.1" viewBox="0,0,200,200" width="200mm" xmlns="http://www.w3.org/2000/svg" xmlns:ev="http://www.w3.org/2001/xml-events" xmlns:xlink="http://www.w3.org/1999/xlink"><defs /><rect fill="#1a1a1a" height="200" width="200" x="0" y="0" /><text alignment-baseline="middle" fill="#e1ed5e" style="dominant-baseline: central; font-size:9.0px; font-family:Arial;" text-anchor="middle" x="100.0" y="100.0">2025</text><line stroke="#e1ed5e" stroke-width="0.3" x1="100.0" x2="100.0" y1="15.0" y2="10.0" /><path d="M 100.0 14.0 a86.0,86.0 0 0,1 42.46469731375804,11.215312516191453" fill="none" id="id49" stroke="none" /><text fill="#e1ed5e" style="font-size:6.75px; font-family:Arial;" text-anchor="middle"><textPath startOffset="22.20632615414155" xlink:href="#id49">January</textPath></text><path d="M 100.0 79.0 l 0.0 -41.176085804346 a62.176085804346,62.176085804346 0 0,0 1.0702591093259448,0.009212058046828158 l -0.7087786300534165 41.16998512290773" fill="#31ff3c" stroke="none" /><path d="M 101.80526077348638 79.07773832637324 l 2.521770380882702 -29.226325949427995 a50.33491868671371,50.33491868671371 0 0,0 0.8625844031097138,0.08191278276148677 l -3.02447991108266 29.17858762215133" fill="#a6ff21" stroke="none" /><path d="M 102.52436894288641 79.15227682838746 l 4.231164575181649 -34.94344517487987 a56.198680576864064,56.198680576864064 0 0,0 0.9593523459094262,0.12455146809572928 l -4.832031649598921 34.86543538362" fill="#64ff29" stroke="none" /><path d="M 102.88285421437855 79.19881850522331 l 3.743794190922867 -27.0132780409308 a48.27147200758738,48.27147200758738 0 0,0 0.8220655119182417,0.12115108726044002 l -4.208228683269764 26.94483246950939" fill="#beff1f" stroke="none" /><path d="M 104.66035177308747 79.52364482259891 l 3.260322248686081 -14.324995109253551 a35.691330302100475,35.691330302100475 0 0,0 0.597874503860746,0.14149757851335001 l -3.5064204395093506 14.266751618599333" fill="#ff9e0e" stroke="none" /><path d="M 105.01212808612495 79.60689891045804 l 7.009834916401846 -28.52127272383916 a50.3700661106307,50.3700661106307 0 0,0 0.8401993540429327,0.2141855231645414 l -7.499743159129804 28.39638420450575" fill="#a5ff21" stroke="none" /><path d="M 109.08828744355905 81.06846463323043 l 12.709506943232617 -26.474787652159296 a50.36743005383693,50.36743005383693 0 0,0 0.7783656313958284,0.38194063492111013 l -13.163343841638877 26.252091857103352" fill="#a5ff21" stroke="none" /><line stroke="#e1ed5e" stroke-width="0.3" x1="143.23703022742887" x2="145.7803849466894" y1="26.81831364943548" y2="22.513508569990506" /><path d="M 143.74570117128098 25.957352633546492 a86.0,86.0 0 0,1 28.547481713284135,27.462654790039103" fill="none" id="id50" stroke="none" /><text fill="#e1ed5e" style="font-size:6.75px; font-family:Arial;" text-anchor="middle"><textPath startOffset="19.985693538727396" xlink:href="#id50">February</textPath></text><path d="M 112.48926042617603 83.11751280151076 l 8.920576803884357 -12.058482132302613 a35.99945605177271,35.99945605177271 0 0,0 0.4949991141693061,0.37282307038447104 l -9.126822071812045 11.903142472412295" fill="#ffa20f" stroke="none" /><path d="M 114.94478906791727 85.2469230424477 l 12.563769715594763 -12.402601378231818 a38.654258138302325,38.654258138302325 0 0,0 0.4633646730216964,0.477538026453524 l -12.775398652319568 12.18449915622818" fill="#ffc612" stroke="none" /><path d="M 115.19652480421416 85.50635884689758 l 21.2806030840123 -20.296313044923725 a50.407556696142144,50.407556696142144 0 0,0 0.5934473921387118,0.6330483010107658 l -21.626817798121472 19.926995327034902" fill="#a5ff21" stroke="none" /><path d="M 115.68641384162765 86.03803664274999 l 24.089709181010583 -21.44146139887762 a53.24981171022902,53.24981171022902 0 0,0 0.6035184976181945,0.6899259714988295 l -24.455219542206628 21.023619871175843" fill="#84ff25" stroke="none" /><path d="M 116.15771136456269 86.58626213691792 l 11.299670918722114 -9.380711180127733 a35.68605818851293,35.68605818851293 0 0,0 0.3883008622821058,0.476010943947092 l -11.459470273080628 9.18481606657254" fill="#ff9e0e" stroke="none" /><path d="M 116.60985879189232 87.15038557335679 l 44.031485134031705 -34.06336042308527 a76.66941895171412,76.66941895171412 0 0,0 0.7985450749417716,1.0507917142218348 l -44.61130614919759 33.300383932982406" fill="#43ffe3" stroke="none" /><path d="M 116.82858285166822 87.43820079747576 l 28.205914110126088 -21.05447811607773 a56.19750899606684,56.19750899606684 0 0,0 0.5719766074314907,0.7801754497363131 l -28.564153330071203 20.56584022266992" fill="#64ff29" stroke="none" /><path d="M 117.04232023915458 87.72973835380427 l 11.902621913800465 -8.56974186076671 a35.66672710535859,35.66672710535859 0 0,0 0.35443789713272017,0.5013272695904565 l -12.048372430737068 8.36358809084446" fill="#ff9e0e" stroke="none" /><path d="M 117.65298651832404 88.62581576622439 l 29.97398224135636 -19.31285654578709 a56.65706156378141,56.65706156378141 0 0,0 0.5211705129484061,0.8243665921149735 l -30.30198035055072 18.79404230595791" fill="#5fff29" stroke="none" /><line stroke="#e1ed5e" stroke-width="0.3" x1="172.23445277983987" x2="176.4835382374775" y1="55.19839476539836" y2="52.563006222186495" /><path d="M 173.08426987136738 54.67131705675599 a86.0,86.0 0 0,1 12.851231095245387,41.99856678651699" fill="none" id="id51" stroke="none" /><text fill="#e1ed5e" style="font-size:6.75px; font-family:Arial;" text-anchor="middle"><textPath startOffset="22.20632615414155" xlink:href="#id51">March</textPath></text><path d="M 118.03404312379186 89.2402003453031 l 30.20975130942315 -18.0242926933439 a56.17817791291249,56.17817791291249 0 0,0 0.48832299447080546,0.8347022897749702 l -30.51553397836428 17.50161099121503" fill="#64ff29" stroke="none" /><path d="M 118.73160827565052 90.50648371742162 l 36.62327512188576 -18.561335128010843 a62.0583419342241,62.0583419342241 0 0,0 0.47471672592603475,0.9569999518596195 l -36.937351860765204 17.928175587652273" fill="#30ff3a" stroke="none" /><path d="M 119.47837535516314 92.15188598940014 l 13.609705874532791 -5.483543745641581 a35.67287790454406,35.67287790454406 0 0,0 0.22458021682206167,0.5715321556769064 l -13.702079641236553 5.24846258506889" fill="#ff9e0e" stroke="none" /><path d="M 120.08093135843002 93.85539295169968 l 59.45381832092176 -18.192400769785014 a83.17491422354877,83.17491422354877 0 0,0 0.40713765192480045,1.3726657633219082 l -59.758161869958265 17.166305619716578" fill="#4cdaff" stroke="none" /><path d="M 120.45610955862082 95.25157060432595 l 22.852708073117956 -5.304746265372819 a44.46031967418896,44.46031967418896 0 0,0 0.16663222447821002,0.7469795890400525 l -22.940634684598205 4.910588506782802" fill="#edff1a" stroke="none" /><path d="M 120.73433829027371 96.67025291283417 l 31.86641475190161 -5.117457823495457 a53.27470780217022,53.27470780217022 0 0,0 0.13761137747671823,0.9066870407403859 l -31.949782022817626 4.568171670362989" fill="#84ff25" stroke="none" /><path d="M 120.78858239683441 97.02765380044208 l 30.341158977019447 -4.338171158282493 a51.649725236408266,51.649725236408266 0 0,0 0.11826311604428366,0.8811975804573762 l -30.411338092121564 3.815255235760452" fill="#97ff23" stroke="none" /><line stroke="#e1ed5e" stroke-width="0.3" x1="184.98032266829074" x2="189.97916517819016" y1="98.17113171792111" y2="98.06355123074" /><path d="M 185.9800911702706 98.14961562048488 a86.0,86.0 0 0,1 -9.607161424134198,41.387399972396054" fill="none" id="id52" stroke="none" /><text fill="#e1ed5e" style="font-size:6.75px; font-family:Arial;" text-anchor="middle"><textPath startOffset="21.466115282336823" xlink:href="#id52">April</textPath></text><path d="M 120.99980553446 99.90962569577887 l 20.531470447712774 -0.08835878757562267 a41.531660576306166,41.531660576306166 0 0,0 -0.0030767103300000168,0.7149191263236367 l -20.529949440093272 -0.26506981695169884" fill="#ffec16" stroke="none" /><path d="M 120.99824983174949 100.27111621757518 l 29.370839948489905 0.3792178442319872 a50.37328795782308,50.37328795782308 0 0,0 -0.018657156004096034,0.8669247276235442 l -29.3599607298008 -0.8847323876456462" fill="#a5ff21" stroke="none" /><path d="M 120.95626037817324 101.35467743843564 l 20.581843106499832 1.3304739488175756 a41.624801249686186,41.624801249686186 0 0,0 -0.052374785425223176,0.7146123351664132 l -20.55589176241027 -1.684559420480759" fill="#ffed16" stroke="none" /><path d="M 120.92983693683757 101.71520430193887 l 24.024152978156412 1.9687841172831204 a45.10468911266702,45.10468911266702 0 0,0 -0.07007422343322695,0.7732632163947994 l -23.98670415844611 -2.38202872222649" fill="#e5ff1a" stroke="none" /><path d="M 120.89721153311464 102.0752229133903 l 43.23628344524012 4.293631518885565 a64.44895255097771,64.44895255097771 0 0,0 -0.11913142898556504,1.1030090760711402 l -43.1559697147535 -5.037236916841497" fill="#34ff58" stroke="none" /><path d="M 120.81339534386255 102.79330883721812 l 29.09370007744418 3.9045858780394687 a50.35454266506737,50.35454266506737 0 0,0 -0.12268752195634325,0.858076242811906 l -29.022178504471235 -4.4048075928317845" fill="#a6ff21" stroke="none" /><path d="M 120.76222939487914 103.15116336523771 l 9.471547310213776 1.4375331438839973 a30.580016178972915,30.580016178972915 0 0,0 -0.08346632757057827,0.5197449014568223 l -9.445399228281909 -1.6003572750340247" fill="#ff5607" stroke="none" /><path d="M 120.49622156327973 104.57218783832717 l 60.6533560423469 13.530227315037402 a83.14416022762141,83.14416022762141 0 0,0 -0.3236265049135815,1.3941745130751608 l -60.411468971502764 -14.572270485461129" fill="#4cdaff" stroke="none" /><path d="M 120.41448212921028 104.9243191809786 l 7.797581628365547 1.880908882957405 a29.021227928254625,29.021227928254625 0 0,0 -0.12132073606499749,0.48461603337817544 l -7.764049578005489 -2.0148527557329765" fill="#ff3f05" stroke="none" /><path d="M 120.23288151984713 105.62410040840565 l 28.262765807376056 7.856153982022534 a50.33433289631509,50.33433289631509 0 0,0 -0.23922557335611772,0.8327756042994514 l -28.12334759713384 -8.341487061826568" fill="#a6ff21" stroke="none" /><path d="M 120.13307415673323 105.97154293290107 l 14.096353073558646 4.181029529856258 a35.70333900527211,35.70333900527211 0 0,0 -0.17983130470930064,0.5876991087596494 l -14.022294996343213 -4.423055611167965" fill="#ff9e0e" stroke="none" /><path d="M 120.02730092923936 106.31721596034902 l 28.029506249064866 8.841353353750211 a50.390861669781586,50.390861669781586 0 0,0 -0.26804998697538013,0.8249730320541744 l -27.87316401107324 -9.322525285782183" fill="#a5ff21" stroke="none" /><path d="M 119.67450827220406 107.3425965602758 l 28.632284612378534 10.685670594609288 a51.56127088621719,51.56127088621719 0 0,0 -0.31748415604841235,0.8288509483485362 l -28.444106176736614 -11.176945109790967" fill="#98ff23" stroke="none" /><path d="M 119.41010516605496 108.01547362559984 l 21.699045431878204 8.96069984536115 a44.476428910150915,44.476428910150915 0 0,0 -0.2983076843840372,0.7051112472184359 l -21.541586766301858 -9.332885618245749" fill="#edff1a" stroke="none" /><path d="M 119.26925614724726 108.34839909993367 l 25.40844577836068 11.008201055912705 a48.690605037797425,48.690605037797425 0 0,0 -0.3398115361008386,0.7661853062817943 l -25.215193157528567 -11.443934698687187" fill="#b9ff1f" stroke="none" /><path d="M 119.12269723197855 108.67885076344098 l 40.047032163781566 18.175376174808605 a64.97850707132696,64.97850707132696 0 0,0 -0.47101800648135594,1.0145308822318435 l -39.72823954046037 -18.862027124319276" fill="#34ff5e" stroke="none" /><path d="M 118.81262510543309 109.33194174019688 l 22.043921350424693 10.934815774765823 a45.60700437948059,45.60700437948059 0 0,0 -0.35491225346467487,0.7002755466200139 l -21.85243042717375 -11.312645533088533" fill="#deff1b" stroke="none" /><path d="M 118.64920377521936 109.65438752849418 l 20.84659384876469 10.791940400829798 a44.474378643755756,44.474378643755756 0 0,0 -0.35780165333899605,0.6768258870437254 l -20.657739687200802 -11.149181302959658" fill="#edff1a" stroke="none" /><line stroke="#e1ed5e" stroke-width="0.3" x1="174.80103733775053" x2="179.2010983576182" y1="140.37084112569926" y2="142.7455964860345" /><path d="M 175.68104954172406 140.8457921977663 a86.0,86.0 0 0,1 -30.038265399797805,32.042727171017184" fill="none" id="id53" stroke="none" /><text fill="#e1ed5e" style="font-size:6.75px; font-family:Arial;" text-anchor="middle"><textPath startOffset="22.206326154141568" xlink:href="#id53">May</textPath></text><path d="M 118.48025628344425 109.97397251340804 l 26.00040966744059 14.032671808384103 a50.54551033501632,50.54551033501632 0 0,0 -0.4198252094637799,0.762104701652124 l -25.755008048525298 -14.478147028434034" fill="#a3ff21" stroke="none" /><path d="M 117.94076556474637 110.91462005526583 l 53.8222966942391 32.74386016579747 a84.0,84.0 0 0,0 -0.7621414413281484,1.228814674538906 l -53.25069061324299 -33.665471171701654" fill="#4dd2ff" stroke="none" /><path d="M 116.93607887273984 112.41649034213515 l 16.748524873674935 12.278987296978297 a41.76744121174928,41.76744121174928 0 0,0 -0.4300827895721845,0.5761661797569341 l -16.534680817407658 -12.565466356244546" fill="#ffef16" stroke="none" /><path d="M 114.55890576462653 115.13401014063108 l 20.351359471030282 21.155276748788093 a50.35512845546597,50.35512845546597 0 0,0 -0.6298327523761271,0.5955461795498854 l -19.984190884263345 -21.5024575650839" fill="#a6ff21" stroke="none" /><path d="M 113.75828350139079 115.86535959552629 l 19.216271975686563 22.159237011570724 a50.3308181539234,50.3308181539234 0 0,0 -0.6594164602984293,0.5619690132009127 l -18.83199003881109 -22.486730414994586" fill="#a6ff21" stroke="none" /><path d="M 111.7513745106137 117.40417183066458 l 11.495197234258868 17.024764865737684 a41.54220480348127,41.54220480348127 0 0,0 -0.5960817798769097,0.395050500356426 l -11.200440755641994 -17.220113387185428" fill="#ffec16" stroke="none" /><path d="M 111.45004920935366 117.60387380957326 l 17.58038811698651 27.028961035550118 a53.24336801584423,53.24336801584423 0 0,0 -0.7725820549876263,0.4930984209478863 l -17.11252425995195 -27.327573885321815" fill="#84ff25" stroke="none" /><line stroke="#e1ed5e" stroke-width="0.3" x1="143.8653032363475" x2="146.44561519142675" y1="172.8068346515853" y2="177.08958963109032" /><path d="M 144.38136562736335 173.6633856474863 a86.0,86.0 0 0,1 -40.68145358897372,12.25698825130547" fill="none" id="id54" stroke="none" /><text fill="#e1ed5e" style="font-size:6.75px; font-family:Arial;" text-anchor="middle"><textPath startOffset="21.466115282336833" xlink:href="#id54">June</textPath></text><path d="M 110.8373102113329 117.98757091392108 l 16.655158268938468 27.64392959166413 a53.27353622137297,53.27353622137297 0 0,0 -0.7895445760011671,0.4664768523498434 l -16.17684582190892 -27.926525016307725" fill="#84ff25" stroke="none" /><path d="M 109.89434966115114 118.52300852407294 l 15.201981426577426 28.459316801073243 a53.26504226059304,53.26504226059304 0 0,0 -0.812441791113268,0.42503114674008535 l -14.709848732937663 -28.716777366758045" fill="#84ff25" stroke="none" /><path d="M 109.57404056367764 118.69057910512821 l 13.427398935543595 26.213160505399973 a50.452076766437,50.452076766437 0 0,0 -0.7763519741125479,0.3892789966226392 l -12.974193053748287 -26.440407342931916" fill="#a4ff21" stroke="none" /><path d="M 109.2508944713604 118.85261126421891 l 15.498583557418765 31.58492098884174 a56.182571340902115,56.182571340902115 0 0,0 -0.871866108532056,0.4185487153115483 l -14.952604780886476 -31.84702398065285" fill="#64ff29" stroke="none" /><path d="M 108.59647513512805 119.15986991738527 l 15.028904136278493 33.49650219719507 a57.71353454768613,57.71353454768613 0 0,0 -0.9098932419602068,0.3988704579778265 l -14.450090219660533 -33.75023720846735" fill="#54ff2b" stroke="none" /><path d="M 102.70371172650421 120.8252237178851 l 3.7739513776787996 29.068698770707993 a50.31265865156629,50.31265865156629 0 0,0 -0.8598015934963742,0.10410999905360531 l -3.273022361131045 -29.12935429848695" fill="#a6ff21" stroke="none" /><line stroke="#e1ed5e" stroke-width="0.3" x1="102.19456741930631" x2="102.32365962044197" y1="184.97166512339345" y2="189.96999836594603" /><path d="M 102.22038585953345 185.97133177190398 a86.0,86.0 0 0,1 -42.740103519485714,-10.115201625700543" fill="none" id="id55" stroke="none" /><text fill="#e1ed5e" style="font-size:6.75px; font-family:Arial;" text-anchor="middle"><textPath startOffset="22.20632615414155" xlink:href="#id55">July</textPath></text><path d="M 100.54218724476979 120.99299961872073 l 0.7569432430433506 29.308157589264553 a50.31793076515385,50.31793076515385 0 0,0 -0.8660442142722129,0.01490973654532576 l -0.2523393388784698 -29.31684480308904" fill="#a6ff21" stroke="none" /><path d="M 97.65516085044442 120.86867818915974 l -2.292021564315657 20.398610470736735 a41.526974253117245,41.526974253117245 0 0,0 -0.7096615363378472,-0.08593012903834628 l 2.6428105237048936 -20.35613481297304" fill="#ffec16" stroke="none" /><path d="M 96.93821686468263 120.77559828337769 l -1.7328382390709358 11.75809962820302 a32.88510139752852,32.88510139752852 0 0,0 -0.5593037543235534,-0.08735174376267613 l 1.9349778570030063 -11.726529577093238" fill="#ff770a" stroke="none" /><path d="M 96.22490169976321 120.6578951692458 l -7.904497089501087 43.25457491538155 a64.97089179614494,64.97089179614494 0 0,0 -1.0984176522756965,-0.2105143573146776 l 8.647882356348479 -43.11210335971841" fill="#34ff5e" stroke="none" /><path d="M 93.42475214034765 119.94407469862007 l -5.514650053620391 16.727064128038727 a38.61266702000056,38.61266702000056 0 0,0 -0.6294421244267983,-0.21354094360001036 l 5.801761910984416 -16.62966019754059" fill="#ffc612" stroke="none" /><path d="M 93.08242187328487 119.8279376855182 l -9.66355696942258 27.698769988616363 a50.33609026751094,50.33609026751094 0 0,0 -0.8156374720195411,-0.2924585784749361 l 10.138914002071846 -27.528323869101467" fill="#a6ff21" stroke="none" /><path d="M 92.7421414339146 119.70592522655815 l -7.017340393290915 19.052890576521857 a41.304081006443695,41.304081006443695 0 0,0 -0.6650542758289617,-0.25146662068624764 l 7.34426488988016 -18.929275705728976" fill="#ffe915" stroke="none" /><path d="M 92.06813273071674 119.44442032107085 l -7.407375892624606 18.158666231107432 a40.611383860079776,40.611383860079776 0 0,0 -0.6450026469828917,-0.2696111587501132 l 7.71884999910496 -18.028470029337345" fill="#ffe015" stroke="none" /><path d="M 91.40352486487194 119.15986991738527 l -12.755150970742942 28.428748938899236 a52.15906998800524,52.15906998800524 0 0,0 -0.8159963715269907,-0.374583912073387 l 13.242615338037353 -28.204977956491774" fill="#91ff24" stroke="none" /><path d="M 91.07499286063937 119.00905698771935 l -1.6231020124706863 3.4569875598046322 a24.819060503779742,24.819060503779742 0 0,0 -0.3851532100151118,-0.18489694652928368 l 1.6823678904860402 -3.428536336775786" fill="#ff0000" stroke="none" /><line stroke="#e1ed5e" stroke-width="0.3" x1="58.666819895761336" x2="56.23545636021788" y1="174.27360380694188" y2="178.64263932499728" /><path d="M 58.180547188652646 175.14741091055294 a86.0,86.0 0 0,1 -31.652253787137756,-30.449443065178592" fill="none" id="id56" stroke="none" /><text fill="#e1ed5e" style="font-size:6.75px; font-family:Arial;" text-anchor="middle"><textPath startOffset="22.20632615414155" xlink:href="#id56">August</textPath></text><path d="M 88.54995079064634 117.60387380957326 l -7.998489701950941 12.297274955402893 a35.669656057351666,35.669656057351666 0 0,0 -0.511817612253497,-0.3392048048402461 l 8.2089820129444 -12.157772129471327" fill="#ff9e0e" stroke="none" /><path d="M 88.24862548938628 117.40417183066458 l -9.851270118558912 14.590054783705181 a38.60446595441992,38.60446595441992 0 0,0 -0.5475273527301904,-0.37659430582877584 l 10.100954355911993 -14.418319688511305" fill="#ffc612" stroke="none" /><path d="M 87.07902340077011 116.55440617244103 l -9.028536453524751 11.56739650803541 a35.67375659014198,35.67375659014198 0 0,0 -0.48081854806973595,-0.38199133415042397 l 9.226312494311845 -11.410271259879856" fill="#ff9e0e" stroke="none" /><path d="M 86.24171649860922 115.8653595955263 l -24.98455005947977 28.810924777498936 a59.13524784512817,59.13524784512817 0 0,0 -0.7632886257707724,-0.6735134661959421 l 25.476781038157128 -28.376588169530706" fill="#45ff2d" stroke="none" /><path d="M 85.70375840098266 115.38237550388516 l -13.495071430465192 14.520337723548042 a40.82314708917961,40.82314708917961 0 0,0 -0.5106084698914435,-0.48281217885611394 l 13.743015734747452 -14.285890907945998" fill="#ffe315" stroke="none" /><path d="M 85.18274418774928 114.88116024355367 l -31.015427456706806 31.149191986276414 a64.95712572177746,64.95712572177746 0 0,0 -0.7855462403091308,-0.7957541940771586 l 31.54701432207147 -30.610697298218593" fill="#34ff5e" stroke="none" /><path d="M 84.43433777217949 114.09645910891817 l -31.940457529409972 28.92567928647058 a64.0916204078217,64.0916204078217 0 0,0 -0.7335168465103763,-0.8241139530131156 l 32.433633225568684 -28.3715911637166" fill="#33ff53" stroke="none" /><path d="M 83.06392112726016 112.41649034213515 l -25.55458669374998 18.735049669077913 a52.68657424195932,52.68657424195932 0 0,0 -0.52992710240022,-0.7360223964997399 l 25.873293588525808 -18.292393667127033" fill="#8bff24" stroke="none" /><path d="M 82.85270091963577 112.12312394758628 l -13.836127837545146 9.782129065520785 a37.94486596557784,37.94486596557784 0 0,0 -0.37247239276183985,-0.5365742620771895 l 14.002461137469119 -9.542513541256582" fill="#ffbd11" stroke="none" /><line stroke="#e1ed5e" stroke-width="0.3" x1="26.63291911575756" x2="22.317208475507996" y1="142.92168965132927" y2="145.44649492493687" /><path d="M 25.769776987707644 143.4266507060508 a86.0,86.0 0 0,1 -11.730757126820373,-40.83630448921669" fill="none" id="id57" stroke="none" /><text fill="#e1ed5e" style="font-size:6.75px; font-family:Arial;" text-anchor="middle"><textPath startOffset="21.46611528233685" xlink:href="#id57">September</textPath></text><path d="M 81.87401531095188 110.60418214915194 l -25.34093457664256 14.825119335051792 a50.358936093057,50.358936093057 0 0,0 -0.4312835301060145,-0.7519791877367848 l 25.59237010290095 -14.3867203014567" fill="#a5ff21" stroke="none" /><path d="M 81.69416730710424 110.29060199501025 l -25.560710597002323 14.368922948010555 a50.32261708834277,50.32261708834277 0 0,0 -0.4179738837307245,-0.758744007692707 l 25.804260890184565 -13.926808421920025" fill="#a6ff21" stroke="none" /><path d="M 81.51974371655577 109.97397251340807 l -18.678467071499252 10.080948786983493 a42.22523640826801,42.22523640826801 0 0,0 -0.33970703718038575,-0.6425976924057661 l 18.849226616904527 -9.757936079491602" fill="#fff517" stroke="none" /><path d="M 81.18737489456691 109.33194174019688 l -42.6247726349076 21.143880382925374 a68.58082512761862,68.58082512761862 0 0,0 -0.5154885669080976,-1.0620591305007183 l 42.98241445843041 -20.40703229645937" fill="#39ff89" stroke="none" /><path d="M 79.29508885075956 103.50808413554451 l -23.16040306675545 3.924124184144679 a44.490487879717705,44.490487879717705 0 0,0 -0.12143412918455598,-0.7561704383501706 l 23.224518950301295 -3.5248745161012947" fill="#ecff1a" stroke="none" /><path d="M 79.0095281055655 100.63252640178507 l -29.307263514522866 0.8831444109612092 a50.320566821947615,50.320566821947615 0 0,0 -0.018637629256952483,-0.8660173964126295 l 29.318123206464826 -0.3785371987584508" fill="#a6ff21" stroke="none" /><line stroke="#e1ed5e" stroke-width="0.3" x1="15.007084014347285" x2="10.007500721073583" y1="101.09737516637583" y2="101.16192664675087" /><path d="M 14.007167355692545 101.11028546245083 a86.0,86.0 0 0,1 10.666146001902534,-42.60595125391555" fill="none" id="id58" stroke="none" /><text fill="#e1ed5e" style="font-size:6.75px; font-family:Arial;" text-anchor="middle"><textPath startOffset="22.20632615414155" xlink:href="#id58">October</textPath></text><line stroke="#e1ed5e" stroke-width="0.3" x1="26.266209847984243" x2="21.928928074336255" y1="57.711370442889674" y2="55.22380399835377" /><path d="M 25.398753493254645 57.213857153982495 a86.0,86.0 0 0,1 29.58750427330803,-30.492523968695096" fill="none" id="id59" stroke="none" /><text fill="#e1ed5e" style="font-size:6.75px; font-family:Arial;" text-anchor="middle"><textPath startOffset="21.46611528233685" xlink:href="#id59">November</textPath></text><line stroke="#e1ed5e" stroke-width="0.3" x1="56.762969772571076" x2="54.21961505331055" y1="26.818313649435495" y2="22.513508569990535" /><path d="M 56.25429882871897 25.957352633546506 a86.0,86.0 0 0,1 42.265352541879196,-11.944610805530505" fill="none" id="id60" stroke="none" /><text fill="#e1ed5e" style="font-size:6.75px; font-family:Arial;" text-anchor="middle"><textPath startOffset="22.20632615414155" xlink:href="#id60">December</textPath></text></svg>