<?xml version="1.0" encoding="utf-8" ?>
<svg baseProfile="full" height="200mm" version="1.1" viewBox="0,0,200,200" width="200mm" xmlns="http://www.w3.org/2000/svg" xmlns:ev="http://www.w3.org/2001/xml-events" xmlns:xlink="http://www.w3.org/1999/xlink"><defs /><rect fill="#1a1a1a" height="200" width="200" x="0" y="0" /><text alignment-baseline="middle" fill="#e1ed5e" style="dominant-baseline: central; font-size:9.0px; font-family:Arial;" text-anchor="middle" x="100.0" y="100.0">2024</text><line stroke="#e1ed5e" stroke-width="0.3" x1="100.0" x2="100.0" y1="15.0" y2="10.0" /><path d="M 100.0 14.0 a86.0,86.0 0 0,1 42.35913384403234,11.155469271406648" fill="none" id="id37" stroke="none" /><text fill="#e1ed5e" style="font-size:6.75px; font-family:Arial;" text-anchor="middle"><textPath startOffset="22.145653131862478" xlink:href="#id37">January</textPath></text><path d="M 100.72087961077811 79.0123766808444 l 0.547083180917394 -15.927729892299416 a36.9371226866361,36.9371226866361 0 0,0 0.6335142890120359,0.027205829414392008 l -0.8204232305302661 15.915991494459194" fill="#ff9f0e" stroke="none" /><path d="M 102.15924093988457 79.11130261209362 l 2.1639015162071606 -20.933784236093437 a42.04532708738825,42.04532708738825 0 0,0 0.7173014857553692,0.08037512762661235 l -2.5229389035633267 20.893553347959852" fill="#ffe515" stroke="none" /><path d="M 104.29559338865022 79.4440306129975 l 1.8509286403178171 -8.857363587631081 a30.048691980338468,30.048691980338468 0 0,0 0.5040132689004966,0.10984734611045728 l -2.0027043258374477 8.824284783386904" fill="#ff3a05" stroke="none" /><path d="M 104.64783097203109 79.52079915486377 l 6.571856141582281 -28.95681074864732 a50.69320093689176,50.69320093689176 0 0,0 0.8469816301313552,0.1998853584995863 l -7.0679699254535215 28.83972924650151" fill="#abff21" stroke="none" /><path d="M 104.9986988182912 79.60360301121754 l 3.4312976284433483 -14.000865257235684 a35.41520139873981,35.41520139873981 0 0,0 0.5892325670512523,0.14978061436839907 l -3.6711354887199947 13.939899411032018" fill="#ff890c" stroke="none" /><path d="M 105.3480935250658 79.69241777938227 l 6.530646979748435 -24.79793030422713 a46.643453303863026,46.643453303863026 0 0,0 0.7725457420817958,0.21056077736271428 l -6.9553741227649235 24.682169032720275" fill="#ddff1b" stroke="none" /><path d="M 106.04205211174951 79.88797359093562 l 5.344709358207909 -17.790799180963354 a39.57628740144493,39.57628740144493 0 0,0 0.6489745372786692,0.2010539705681412 l -5.649324528358208 17.696428622588567" fill="#ffc412" stroke="none" /><path d="M 107.06938296918511 80.22567764915836 l 12.659063334615183 -35.40965316627283 a58.604460132616374,58.604460132616374 0 0,0 0.9443992890633683,0.34679650023725916 l -13.265051775332676 35.18712581702685" fill="#51ff2b" stroke="none" /><path d="M 107.74402155503746 80.48000691201159 l 5.538925550131892 -13.961710680302184 a36.02028832514103,36.02028832514103 0 0,0 0.5728006948959493,0.23295305601153543 l -5.777780706218281 13.864570367711355" fill="#ff920d" stroke="none" /><path d="M 108.07796709384702 80.6158196554323 l 8.371671898146122 -20.08896495540576 a42.76353379738066,42.76353379738066 0 0,0 0.6751851366178712,0.2881963858322057 l -8.715292109934422 19.942293919914153" fill="#ffee16" stroke="none" /><path d="M 109.3889696526874 81.21577127319529 l 8.785076660902268 -17.57603821135669 a40.64929238280606,40.64929238280606 0 0,0 0.6214943447964094,0.31733944077557596 l -9.085498227412256 17.42264081890828" fill="#ffd213" stroke="none" /><path d="M 110.34350942703115 81.72400993836675 l 4.033993537114973 -7.127680050287056 a29.190050473394255,29.190050473394255 0 0,0 0.43396922006327904,0.2505522460235461 l -4.155755225038649 7.057380906987339" fill="#ff2d04" stroke="none" /><line stroke="#e1ed5e" stroke-width="0.3" x1="143.13028292997686" x2="145.6673583964461" y1="26.7553504044142" y2="22.446841604673864" /><path d="M 143.63769802327073 25.89364864446614 a86.0,86.0 0 0,1 29.32050498858742,28.57503671076993" fill="none" id="id38" stroke="none" /><text fill="#e1ed5e" style="font-size:6.75px; font-family:Arial;" text-anchor="middle"><textPath startOffset="20.669276256404974" xlink:href="#id38">February</textPath></text><path d="M 110.65571695917076 81.90426304109057 l 11.452167661474096 -19.448284372175326 a43.569623593837626,43.569623593837626 0 0,0 0.6412354029513129,0.38504343528267004 l -11.784335820982843 19.248826936356735" fill="#fff917" stroke="none" /><path d="M 111.27062007382361 82.28071324371311 l 17.63087630580298 -27.718665963439037 a53.8507571009138,53.8507571009138 0 0,0 0.7757441779459244,0.5028280038692811 l -18.104106116005912 27.41192411786586" fill="#86ff25" stroke="none" /><path d="M 111.8722381534696 82.67804972795209 l 8.414260167423844 -12.276657047483019 a35.88341635601887,35.88341635601887 0 0,0 0.5051101914426162,0.35260614246131444 l -8.62376545004022 12.130406089216578" fill="#ff900d" stroke="none" /><path d="M 112.45986205192187 83.09580414077388 l 20.230401165526718 -27.446424542078407 a55.09655923201267,55.09655923201267 0 0,0 0.7565203893262751,0.5677070038585106 l -20.69857454376376 27.095098510955882" fill="#78ff26" stroke="none" /><path d="M 113.03279911837588 83.53348406188908 l 13.347085931147063 -16.863607059107167 a42.506416389008024,42.506416389008024 0 0,0 0.5682687455320273,0.4577570757667619 l -13.63460544703435 16.632001689546996" fill="#ffeb16" stroke="none" /><path d="M 113.86319453409587 84.22622945171908 l 19.831154381174777 -22.564213330977964 a51.04027974796292,51.04027974796292 0 0,0 0.6531575337617249,0.5840574942589488 l -20.215576941759878 22.220460306835626" fill="#a7ff21" stroke="none" /><path d="M 115.41159269507618 85.73525988315684 l 21.798160310401236 -20.176051755669747 a50.70240490878501,50.70240490878501 0 0,0 0.5857390477960628,0.6438298199063436 l -22.14129705903918 19.79888436020573" fill="#abff21" stroke="none" /><path d="M 115.6541949942343 86.00192230759917 l 22.274533040582156 -19.918024796475294 a50.881140104905484,50.881140104905484 0 0,0 0.5766261141971601,0.6560946681605514 l -22.613170218737906 19.532717850503445" fill="#a9ff21" stroke="none" /><path d="M 117.21940702142032 87.97951657250589 l 24.454704987040046 -17.071283329054253 a50.82383795731205,50.82383795731205 0 0,0 0.4932580852445259,0.7196782875682387 l -24.744152809099898 16.64897030641597" fill="#aaff21" stroke="none" /><path d="M 117.42321728460499 88.27688183743584 l 26.450009038099562 -17.7967465072316 a52.8798865173358,52.8798865173358 0 0,0 0.5002829106495292,0.757492090264844 l -26.751616387669817 17.340074538627697" fill="#91ff23" stroke="none" /><line stroke="#e1ed5e" stroke-width="0.3" x1="172.87174338648825" x2="177.1583165268699" y1="56.24261187166439" y2="53.66864786411523" /><path d="M 173.72905801456457 55.72781907015455 a86.0,86.0 0 0,1 12.242430191666344,42.057860355516425" fill="none" id="id39" stroke="none" /><text fill="#e1ed5e" style="font-size:6.75px; font-family:Arial;" text-anchor="middle"><textPath startOffset="22.145653131862474" xlink:href="#id39">March</textPath></text><path d="M 118.00360718960297 89.18935116829356 l 25.95022059814069 -15.582361858784852 a51.26919143601755,51.26919143601755 0 0,0 0.44659442733511323,0.7584149724825168 l -26.21388873560557 15.134595718008779" fill="#a5ff21" stroke="none" /><path d="M 118.36410011445183 89.81374322990088 l 36.75373104563842 -20.386675053868373 a63.02919539471514,63.02919539471514 0 0,0 0.5167032903430251,0.9506758567267054 l -37.098279685596786 19.752744363667066" fill="#31ff40" stroke="none" /><path d="M 118.70294669586156 90.45014215332178 l 19.248898464947732 -9.828624710033996 a42.6130043215782,42.6130043215782 0 0,0 0.3270651302314572,0.6543493527078763 l -19.41478350839093 9.496743501162369" fill="#ffec16" stroke="none" /><path d="M 118.8641267826498 90.77261029715802 l 26.882254123837555 -13.149457578901842 a50.92597235509517,50.92597235509517 0 0,0 0.3773875050958533,0.7885947395264337 l -27.10402088689332 12.686050337310306" fill="#a9ff21" stroke="none" /><path d="M 119.0197475246899 91.09779779509293 l 22.008269197242864 -10.300981246967327 a45.29967340744895,45.29967340744895 0 0,0 0.32360260705285004,0.7071300973827735 l -22.181856269150764 9.92166216736987" fill="#efff19" stroke="none" /><path d="M 119.4528033332814 92.08871423366111 l 32.36691395601917 -13.16334213087301 a55.941246329957444,55.941246329957444 0 0,0 0.35413825767385576,0.8926597495701958 l -32.588110888659145 12.605781364089248" fill="#6eff28" stroke="none" /><path d="M 119.71291397450082 92.76114493625339 l 33.657558660121566 -12.35952174576154 a56.855111668261145,56.855111668261145 0 0,0 0.3285679373425139,0.9190629982111483 l -33.86476676750802 11.779923791169477" fill="#64ff29" stroke="none" /><path d="M 119.83427380445688 93.10060997987247 l 15.185921131526193 -5.2824516659517045 a37.07844819054531,37.07844819054531 0 0,0 0.20395720530865466,0.6029632366746559 l -15.274363758407212 5.0209867548028875" fill="#ffa10e" stroke="none" /><path d="M 119.94978838288452 93.4421083053983 l 28.566450519841244 -9.390359687676561 a51.07026688219576,51.07026688219576 0 0,0 0.2666239630933744,0.835195766904345 l -28.723439198711876 8.89859488708083" fill="#a7ff21" stroke="none" /><path d="M 120.16314734710363 94.1308016681162 l 45.792905925275164 -13.329647521885725 a68.6934978392109,68.6934978392109 0 0,0 0.3198549430185468,1.1350523537900796 l -46.014979360368294 12.541587244192632" fill="#39ff86" stroke="none" /><path d="M 120.43855184770803 95.1765574152323 l 28.90424700864823 -6.821323591856763 a50.6982482763171,50.6982482763171 0 0,0 0.19262712145251742,0.8487506392089541 l -29.017084991658415 6.324138618708783" fill="#abff21" stroke="none" /><path d="M 120.51834098615036 95.52812308129327 l 21.87152591746314 -4.766797276310881 a43.38495035133441,43.38495035133441 0 0,0 0.1523478835561234,0.7290397733707346 l -21.95013151184363 4.390641051654742" fill="#fff717" stroke="none" /><path d="M 120.592083275326 95.88100663000786 l 29.231711712688792 -5.847161024370927 a50.81077425527002,50.81077425527002 0 0,0 0.1637406421842119,0.8567602301172577 l -29.327778647155164 5.344498229220355" fill="#aaff21" stroke="none" /><path d="M 120.7213421655516 96.59031103205396 l 61.84909170449161 -10.17724450363442 a83.68083000692772,83.68083000692772 0 0,0 0.22107083740075398,1.4194333616311299 l -62.01468403403064 9.114022960071848" fill="#4dd5ff" stroke="none" /><path d="M 120.82617615685814 97.30363454192243 l 21.081361617164326 -2.729404324905107 a42.257315343252074,42.257315343252074 0 0,0 0.08696538140013617,0.7201981122662474 l -21.12510908482413 2.3671125357154468" fill="#ffe815" stroke="none" /><path d="M 120.9064616781168 98.02013634271609 l 40.46015288604145 -3.8316185445704782 a61.64117705274965,61.64117705274965 0 0,0 0.09071930834988774,1.0542958767779997 l -40.51996581708908 3.136501620416816" fill="#31ff2f" stroke="none" /><path d="M 120.96210409425399 98.7389718711861 l 45.133067495403935 -2.715093265230093 a66.21466037673605,66.21466037673605 0 0,0 0.05851613577452752,1.13519740131453 l -45.17302522063503 1.9399240705388323" fill="#35ff68" stroke="none" /><path d="M 120.99303781780057 99.45929381324524 l 14.833664633156504 -0.38206258231917695 a35.838584105829185,35.838584105829185 0 0,0 0.010561406149804019,0.6151489603927681 l -14.838037470904974 0.12736670595734245" fill="#ff8f0d" stroke="none" /><line stroke="#e1ed5e" stroke-width="0.3" x1="184.99686870605535" x2="189.99668451229388" y1="99.2704041080226" y2="99.22748670261217" /><path d="M 185.99683186730306 99.26182062694052 a86.0,86.0 0 0,1 -10.086455211305974,41.156179273409016" fill="none" id="id40" stroke="none" /><text fill="#e1ed5e" style="font-size:6.75px; font-family:Arial;" text-anchor="middle"><textPath startOffset="21.40746469413373" xlink:href="#id40">April</textPath></text><path d="M 120.99922638620191 99.81974689727618 l 21.4426831465573 -0.1840596456653548 a42.443473097350974,42.443473097350974 0 0,0 0.0,0.7286254967783607 l -21.4426831465573 -0.18405964566535218" fill="#ffea16" stroke="none" /><path d="M 120.99922638620191 100.18025310272382 l 26.22708776146053 0.22512800507354266 a47.22805397024379,47.22805397024379 0 0,0 -0.013917811545554097,0.8106427479215969 l -26.21935851831631 -0.6753176689642106" fill="#d6ff1c" stroke="none" /><path d="M 120.93736805541906 101.62068470465957 l 35.56257220250453 2.752768001899516 a56.668953914162245,56.668953914162245 0 0,0 -0.0834015271902589,0.9692521672955209 l -35.51007705261654 -3.3628412165706947" fill="#66ff29" stroke="none" /><path d="M 120.82617615685814 102.69636545807757 l 44.02184746091322 5.699509501905289 a65.38927192953518,65.38927192953518 0 0,0 -0.15368186324690628,1.1119654059200474 l -43.917521081111104 -6.454363216025421" fill="#34ff5e" stroke="none" /><path d="M 120.7213421655516 103.40968896794604 l 17.254325134180917 2.8391926347887018 a38.486358987892984,38.486358987892984 0 0,0 -0.11286616392041797,0.6509820404770922 l -17.203044152768264 -3.1349677081863816" fill="#ffb410" stroke="none" /><path d="M 120.51834098615036 104.47187691870673 l 61.555022958451104 13.415630756120176 a84.0,84.0 0 0,0 -0.3191565537693437,1.4062626642439322 l -61.315655543124095 -14.470327754303124" fill="#4dd2ff" stroke="none" /><path d="M 120.16314734710363 105.8691983318838 l 15.473353839514 4.5040677916073815 a37.11556098043744,37.11556098043744 0 0,0 -0.18332202714384105,0.6102194061038317 l -15.393755492366529 -4.769024801301937" fill="#ffa10e" stroke="none" /><path d="M 119.83427380445688 106.89939002012753 l 4.988409923712368 1.7352279182630082 a26.281595355128164,26.281595355128164 0 0,0 -0.1518823782510593,0.4248420435051216 l -4.957887375417365 -1.8206049181490513" fill="#ff0000" stroke="none" /><path d="M 119.71291397450082 107.23885506374661 l 14.021102820984693 5.148743168376099 a35.93656187114439,35.93656187114439 0 0,0 -0.21762038091492755,0.5772639152334358 l -13.930651756255324 -5.388675363803694" fill="#ff910d" stroke="none" /><path d="M 119.4528033332814 107.91128576633889 l 22.712890421493526 9.237134803936037 a45.51938112361034,45.51938112361034 0 0,0 -0.30058865402564316,0.72130334420428 l -22.5509759229314 -9.625670657581596" fill="#ecff1a" stroke="none" /><path d="M 119.0197475246899 108.90220220490707 l 38.79870378836554 18.15975243435601 a63.838254214363474,63.838254214363474 0 0,0 -0.47307411863728666,0.9885429600238438 l -38.48125041176834 -18.82310789644496" fill="#32ff4a" stroke="none" /><path d="M 118.8641267826498 109.22738970284198 l 15.939618605384766 7.796866204368004 a38.74436710322304,38.74436710322304 0 0,0 -0.2973724024882854,0.5949440068517506 l -15.803426289684747 -8.0693420673835" fill="#ffb811" stroke="none" /><line stroke="#e1ed5e" stroke-width="0.3" x1="174.33088141563837" x2="178.70328620479359" y1="141.23008692659167" y2="143.65538615756765" /><path d="M 175.20536237346943 141.71514677278685 a86.0,86.0 0 0,1 -30.301960400862466,31.631185727798858" fill="none" id="id41" stroke="none" /><text fill="#e1ed5e" style="font-size:6.75px; font-family:Arial;" text-anchor="middle"><textPath startOffset="22.145653131862474" xlink:href="#id41">May</textPath></text><path d="M 118.18653347947321 110.5 l 7.85568149730477 4.53547982713687 a30.070959654273743,30.070959654273743 0 0,0 -0.2619413848758957,0.444833737375807 l -7.77666640229911 -4.669664732806226" fill="#ff3a05" stroke="none" /><path d="M 117.423217284605 111.72311816256416 l 24.753759797248783 16.655434316788785 a50.83541714775839,50.83541714775839 0 0,0 -0.49337046418988645,0.719842251808 l -24.464199596243574 -17.077911303666827" fill="#aaff21" stroke="none" /><path d="M 117.01052211995028 112.31430620078461 l 21.68933560878241 15.70140634689162 a47.7761356513707,47.7761356513707 0 0,0 -0.4866294727579649,0.6602063396924778 l -21.416604116440617 -16.071418995852977" fill="#cfff1d" stroke="none" /><path d="M 116.79662413953412 112.60449989151573 l 28.59259727706159 21.45641804466026 a56.74792993105268,56.74792993105268 0 0,0 -0.5913891549832078,0.7741473877199361 l -28.220056144724076 -21.944086345621074" fill="#65ff29" stroke="none" /><path d="M 116.57777611688842 112.89097897827486 l 11.770095259052962 9.152497264224307 a35.90984066242206,35.90984066242206 0 0,0 -0.38258270602364175,0.48338075106991757 l -11.611246122387758 -9.353197959208906" fill="#ff900d" stroke="none" /><path d="M 115.6541949942343 113.99807769240083 l 26.581684928967533 23.769506574286027 a56.65915613763072,56.65915613763072 0 0,0 -0.6545543593975298,0.7194699020246205 l -26.169732868728122 -24.22231405186832" fill="#66ff29" stroke="none" /><path d="M 115.16444852881244 114.52719865689866 l 21.479901665331695 20.577259900354488 a50.74575264737902,50.74575264737902 0 0,0 -0.6080143405531873,0.623876276547467 l -21.1235005236277 -20.94295886896969" fill="#abff21" stroke="none" /><path d="M 114.91283532996324 114.78537596483092 l 10.577879577893356 10.48747089399033 a35.89558935110349,35.89558935110349 0 0,0 -0.4375981383609183,0.43385800580634504 l -10.396289519402472 -10.667508910025337" fill="#ff900d" stroke="none" /><path d="M 112.45986205192187 116.90419585922612 l 9.088099164318695 12.329751936380083 a36.317190644278035,36.317190644278035 0 0,0 -0.505014729428479,0.36559171848082284 l -8.875103424516249 -12.483944426233982" fill="#ff960d" stroke="none" /><path d="M 111.8722381534696 117.32195027204791 l 25.259565716753013 36.854461272009765 a65.67993929997031,65.67993929997031 0 0,0 -0.9354816020087919,0.6294337710489297 l -24.623187826647218 -37.282644717115815" fill="#35ff61" stroke="none" /><path d="M 111.5731344415666 117.5232005979908 l 8.206529370945606 12.425731430535157 a35.891135816316435,35.891135816316435 0 0,0 -0.5170278218595601,0.33513118757644 l -7.992015916829036 -12.56477645981549" fill="#ff900d" stroke="none" /><line stroke="#e1ed5e" stroke-width="0.3" x1="143.1302829299769" x2="145.66735839644613" y1="173.24464959558577" y2="177.55315839532614" /><path d="M 143.63769802327073 174.10635135553383 a86.0,86.0 0 0,1 -40.68552437913181,11.842963189579606" fill="none" id="id42" stroke="none" /><text fill="#e1ed5e" style="font-size:6.75px; font-family:Arial;" text-anchor="middle"><textPath startOffset="21.407464694133747" xlink:href="#id42">June</textPath></text><path d="M 110.34350942703117 118.27599006163325 l 16.13919139906047 28.516404774688414 a53.766733744598035,53.766733744598035 0 0,0 -0.8071559665165888,0.4477158084095367 l -15.647291244387784 -28.789253498531096" fill="#87ff25" stroke="none" /><path d="M 110.02825361518725 118.45085714620011 l 9.50375654122395 17.485841605444246 a40.901659354072514,40.901659354072514 0 0,0 -0.6197793075883047,0.3299975720824447 l -9.202188417849092 -17.646409645249257" fill="#ffd614" stroke="none" /><path d="M 109.71004243097381 118.62028667847754 l 9.723999492967236 18.647051185157544 a42.030185069112264,42.030185069112264 0 0,0 -0.6426070615253421,0.32811974437143043 l -9.40246520972831 -18.81122888120181" fill="#ffe515" stroke="none" /><path d="M 109.06512990194946 118.94263497670748 l 6.936015665608358 14.493605096391306 a37.06775970705638,37.06775970705638 0 0,0 -0.5763353283739495,0.26975403455572816 l -6.686191623362902 -14.610535362517567" fill="#ffa10e" stroke="none" /><path d="M 106.72888874123015 119.89276391827305 l 12.430642937034499 36.74898706284287 a59.79444462771749,59.79444462771749 0 0,0 -0.9751541761892777,0.320552546736496 l -11.797966023197485 -36.956960530981384" fill="#44ff2d" stroke="none" /><path d="M 106.0420521117495 120.11202640906438 l 4.277168436483607 14.237302651411053 a35.86589911918979,35.86589911918979 0 0,0 -0.5911724703351854,0.17208169027467274 l -4.032135953766815 -14.308628035988244" fill="#ff900d" stroke="none" /><path d="M 105.3480935250658 120.30758222061773 l 4.108931552315499 15.602282373420298 a37.13426582654307,37.13426582654307 0 0,0 -0.6178340914169126,0.15705101001675612 l -3.8404921676731893 -15.670518615272325" fill="#ffa20e" stroke="none" /><path d="M 104.64783097203109 120.47920084513623 l 6.621665830166614 29.176281427054228 a50.91825289479761,50.91825289479761 0 0,0 -0.8540629690304381,0.18613904900534126 l -6.119840444517039 -29.285651934193286" fill="#a9ff21" stroke="none" /><path d="M 102.875027216393 120.80226474461374 l 2.8630225879510482 20.71540523330681 a41.91231484841487,41.91231484841487 0 0,0 -0.7135515282954705,0.0923835311371248 l -2.5069932377648025 -20.76150036064433" fill="#ffe315" stroke="none" /><path d="M 102.15924093988457 120.88869738790638 l 3.05937325378746 29.596660990707786 a50.75436281463399,50.75436281463399 0 0,0 -0.8674172844898803,0.08214531869154253 l -2.5508564059125645 -29.644818064904513" fill="#abff21" stroke="none" /><path d="M 101.80034050326958 120.92268563240118 l 2.0397229792428684 23.7046728629273 a44.79226734404381,44.79226734404381 0 0,0 -0.7666537941793354,0.059343852326944585 l -1.632500190288297 -23.7361944822493" fill="#f5ff19" stroke="none" /><line stroke="#e1ed5e" stroke-width="0.3" x1="101.45913802915013" x2="101.54496967792366" y1="184.9874750549273" y2="189.98673829345242" /><path d="M 101.47630435890484 185.9873277026323 a86.0,86.0 0 0,1 -42.54439059252881,-10.42667462771756" fill="none" id="id43" stroke="none" /><text fill="#e1ed5e" style="font-size:6.75px; font-family:Arial;" text-anchor="middle"><textPath startOffset="22.145653131862474" xlink:href="#id43">July</textPath></text><path d="M 100.36049292484886 120.99690560180557 l 0.5192898280427815 30.246029111288852 a51.25048658991193,51.25048658991193 0 0,0 -0.87978275289163,0.007551876817511147 l -3.704616157498557e-15 -30.25048658991193" fill="#a5ff21" stroke="none" /><path d="M 99.63950707515114 120.99690560180557 l -0.35778996269006563 20.839471606902514 a41.84254280341767,41.84254280341767 0 0,0 -0.7180712062750828,-0.018494967099717215 l 0.7154744830358923 -20.83025892245275" fill="#ffe215" stroke="none" /><path d="M 99.27912038922189 120.98762331915562 l -1.0290296464347422 29.959075386117416 a50.97674265166761,50.97674265166761 0 0,0 -0.8743099767433887,-0.0375466323256578 l 1.5431653837789696 -29.936996185365928" fill="#a8ff21" stroke="none" /><path d="M 98.91894614982273 120.97215588758144 l -1.2021298842666617 23.320998603193193 a44.35196120476363,44.35196120476363 0 0,0 -0.7600144635017535,-0.045720582841863554 l 1.6022886999008614 -23.296926042526636" fill="#fbff18" stroke="none" /><path d="M 98.19965949673042 120.92268563240118 l -1.2757336459680888 14.82595874324473 a35.880744235146636,35.880744235146636 0 0,0 -0.6132197510507011,-0.058072547986673065 l 1.5300529604038051 -14.801874439752872" fill="#ff900d" stroke="none" /><path d="M 97.84075906011543 120.88869738790638 l -3.0582437254647408 29.585733828810913 a50.743377428825916,50.743377428825916 0 0,0 -0.8656919221080318,-0.09700258553275985 l 3.5656715491735715 -29.528875482771184" fill="#abff21" stroke="none" /><path d="M 97.12497278360702 120.80226474461374 l -3.269134019429969 23.65382524730509 a44.87866591891268,44.87866591891268 0 0,0 -0.7622425441474368,-0.11202340472606799 l 3.6747016691850907 -23.59422076928014" fill="#f4ff19" stroke="none" /><path d="M 96.41257539226777 120.69131181640829 l -5.0915525164376545 29.366721887383953 a50.80483620888728,50.80483620888728 0 0,0 -0.8580338462342812,-0.15636234939515448 l 5.5949210962229925 -29.27499136405743" fill="#aaff21" stroke="none" /><path d="M 95.70440661134978 120.55596938700252 l -6.080364655685895 29.09674599423988 a50.72526638735856,50.72526638735856 0 0,0 -0.8508259642206536,-0.18543355887315258 l 6.578953036525686 -28.988080977233007" fill="#abff21" stroke="none" /><path d="M 95.00130118170881 120.39639698878247 l -9.340377734502923 38.11192856848941 a60.23979810642299,60.23979810642299 0 0,0 -1.0022603140740975,-0.25477065252916764 l 9.9932433418024 -37.94597268412498" fill="#3fff2d" stroke="none" /><line stroke="#e1ed5e" stroke-width="0.3" x1="58.13341422392154" x2="55.67067388415222" y1="173.97424548756322" y2="178.32567169271397" /><path d="M 57.64086615596768 174.84453072859336 a86.0,86.0 0 0,1 -31.369924170532247,-30.572349798747897" fill="none" id="id44" stroke="none" /><text fill="#e1ed5e" style="font-size:6.75px; font-family:Arial;" text-anchor="middle"><textPath startOffset="22.145653131862474" xlink:href="#id44">August</textPath></text><line stroke="#e1ed5e" stroke-width="0.3" x1="26.387840678322732" x2="22.057713659400548" y1="142.50000000000003" y2="145.00000000000006" /><path d="M 25.521815274538298 143.00000000000003 a86.0,86.0 0 0,1 -11.493303480769221,-40.785679425670985" fill="none" id="id45" stroke="none" /><text fill="#e1ed5e" style="font-size:6.75px; font-family:Arial;" text-anchor="middle"><textPath startOffset="21.40746469413373" xlink:href="#id45">September</textPath></text><line stroke="#e1ed5e" stroke-width="0.3" x1="15.003131293944662" x2="10.003315487706104" y1="100.72959589197737" y2="100.7725132973878" /><path d="M 14.003168132696942 100.73817937305945 a86.0,86.0 0 0,1 10.791469493833604,-42.45332614584628" fill="none" id="id46" stroke="none" /><text fill="#e1ed5e" style="font-size:6.75px; font-family:Arial;" text-anchor="middle"><textPath startOffset="22.145653131862435" xlink:href="#id46">October</textPath></text><line stroke="#e1ed5e" stroke-width="0.3" x1="26.387840678322718" x2="22.05771365940052" y1="57.49999999999999" y2="54.99999999999999" /><path d="M 25.521815274538284 56.99999999999999 a86.0,86.0 0 0,1 29.574782752854787,-30.34633250058573" fill="none" id="id47" stroke="none" /><text fill="#e1ed5e" style="font-size:6.75px; font-family:Arial;" text-anchor="middle"><textPath startOffset="21.40746469413373" xlink:href="#id47">November</textPath></text><line stroke="#e1ed5e" stroke-width="0.3" x1="56.869717070023135" x2="54.33264160355391" y1="26.7553504044142" y2="22.446841604673864" /><path d="M 56.362301976729285 25.89364864446614 a86.0,86.0 0 0,1 42.16139366436587,-11.88097634709845" fill="none" id="id48" stroke="none" /><text fill="#e1ed5e" style="font-size:6.75px; font-family:Arial;" text-anchor="middle"><textPath startOffset="22.145653131862474" xlink:href="#id48">December</textPath></text></svg>